<svg width="28" height="28" viewBox="0 0 28 28" fill="none" xmlns="http://www.w3.org/2000/svg">
<path d="M7.33072 2.00939C6.43836 2.10802 5.41448 2.48376 4.6771 2.97691C4.28728 3.23992 4.16986 3.33855 3.72368 3.77534C2.91585 4.56908 2.34755 5.62583 2.08924 6.81409C2.0047 7.19452 2 7.54677 2 14C2 20.4532 2.0047 20.8055 2.08924 21.1859C2.61996 23.6047 4.3953 25.38 6.81409 25.9108C7.19452 25.9953 7.54677 26 14 26C20.4532 26 20.8055 25.9953 21.1859 25.9108C23.6047 25.38 25.38 23.6047 25.9108 21.1859C25.9953 20.8055 26 20.4532 26 14C26 7.54677 25.9953 7.19452 25.9108 6.81409C25.4411 4.66301 23.9288 2.94873 21.9139 2.29119C20.984 1.98591 21.5476 2.0047 14.1879 2C10.5057 1.9953 7.41996 2 7.33072 2.00939ZM20.8102 4.06184C21.2517 4.15577 21.82 4.38591 22.1675 4.61605C23.0787 5.21252 23.7597 6.22231 23.9523 7.26027C23.9898 7.44814 24.0039 9.56164 24.0039 14.0188C24.0039 19.3589 23.9898 20.5613 23.9382 20.8102C23.7832 21.5429 23.3887 22.2755 22.8626 22.8204C22.3319 23.3652 21.4536 23.8301 20.7069 23.9569C20.5002 23.9898 18.3773 24.0039 13.8121 23.9945L7.21331 23.9804L6.76712 23.8254C6.14716 23.6094 5.64462 23.2994 5.19374 22.8532C4.59256 22.2614 4.23092 21.6086 4.06184 20.8102C3.96791 20.3546 3.96791 7.6454 4.06184 7.18982C4.3953 5.62583 5.60235 4.40939 7.16634 4.06654C7.59374 3.9726 20.3687 3.96791 20.8102 4.06184Z" fill="#1076FC"/>
<path d="M13.6241 8.06341C13.4268 8.14795 13.2202 8.33582 13.1169 8.52838C13.0464 8.65049 13.0323 8.93229 13.0135 10.8298L12.9901 12.9902L10.8296 13.0137C8.46716 13.0372 8.54231 13.0278 8.26051 13.3284C7.90356 13.7041 7.90356 14.2959 8.26051 14.6716C8.54231 14.9722 8.46716 14.9628 10.8296 14.9863L12.9901 15.0098L13.0135 17.1703C13.037 19.5327 13.0276 19.4575 13.3282 19.7393C13.704 20.0963 14.2957 20.0963 14.6715 19.7393C14.9721 19.4575 14.9627 19.5327 14.9861 17.1703L15.0096 15.0098L17.1701 14.9863C19.5325 14.9628 19.4574 14.9722 19.7392 14.6716C20.0961 14.2959 20.0961 13.7041 19.7392 13.3284C19.4574 13.0278 19.5325 13.0372 17.1701 13.0137L15.0096 12.9902L14.9861 10.8298C14.9627 8.46732 14.9721 8.54247 14.6715 8.26067C14.3991 7.99766 13.9623 7.91781 13.6241 8.06341Z" fill="#1076FC"/>
</svg>
