<svg width="56" height="56" viewBox="0 0 56 56" fill="none" xmlns="http://www.w3.org/2000/svg">
<g id="apple-tv-box_110480 1" clip-path="url(#clip0_248_3059)">
<g id="Outline_Icons_1_">
<g id="Group">
<path id="Vector" d="M45.4975 41.3333H10.5022C4.85786 41.3333 0.503861 36.361 1.25053 30.7657L4.50553 11.7583C5.27319 7.276 9.15819 4 13.7035 4H42.2939C46.8415 4 50.7265 7.276 51.4942 11.7583L54.7492 30.7657C55.4959 36.361 51.1442 41.3333 45.4975 41.3333Z" stroke="#0A113D" stroke-width="3" stroke-miterlimit="10" stroke-linecap="round" stroke-linejoin="round"/>
<path id="Vector_2" d="M54.8332 32V43.6667C54.8332 48.821 50.6542 53 45.4998 53H10.4998C5.3455 53 1.1665 48.821 1.1665 43.6667V32" stroke="#0A113D" stroke-width="3" stroke-miterlimit="10" stroke-linecap="round" stroke-linejoin="round"/>
<path id="Vector_3" d="M19.833 15.6666V29.6666" stroke="#0A113D" stroke-width="3" stroke-miterlimit="10" stroke-linecap="round" stroke-linejoin="round"/>
<path id="Vector_4" d="M15.1665 15.6666H24.4998" stroke="#0A113D" stroke-width="3" stroke-miterlimit="10" stroke-linecap="round" stroke-linejoin="round"/>
<path id="Vector_5" d="M29.1665 15.6666L34.9998 29.6666L40.8332 15.6666" stroke="#0A113D" stroke-width="3" stroke-miterlimit="10" stroke-linecap="round" stroke-linejoin="round"/>
</g>
</g>
</g>
<defs>
<clipPath id="clip0_248_3059">
<rect width="56" height="56" fill="white"/>
</clipPath>
</defs>
</svg>
