<svg width="20" height="20" viewBox="0 0 20 20" fill="none" xmlns="http://www.w3.org/2000/svg">
<g id="clock-_1_ 1" clip-path="url(#clip0_131_2918)">
<g id="Group">
<path id="Vector" d="M9.27724 0.863295C6.22255 1.11329 3.5038 2.85548 1.99599 5.53517C0.730364 7.78517 0.492083 10.5391 1.34365 13.0039C1.79677 14.3047 2.47255 15.3906 3.45302 16.3985C6.20693 19.2227 10.453 19.9649 14.0038 18.2422C15.9218 17.3086 17.5116 15.668 18.3593 13.75C19.7577 10.5899 19.3046 7.01564 17.164 4.28908C16.6601 3.64845 15.6601 2.7422 14.9608 2.29689C14.1835 1.80079 13.2186 1.37501 12.3632 1.15236C11.7147 0.980482 11.2811 0.91017 10.6249 0.859388C10.039 0.81642 9.84755 0.81642 9.27724 0.863295ZM11.1913 2.59376C11.9804 2.73439 12.5468 2.91798 13.2382 3.24611C16.1288 4.62892 17.8163 7.6797 17.4413 10.8594C17.1171 13.6485 15.2577 16.0313 12.6366 17.0117C9.33974 18.2461 5.65615 17.043 3.72255 14.0977C3.16396 13.2461 2.79286 12.2852 2.58974 11.1719C2.49599 10.6524 2.49599 9.34767 2.58974 8.82814C2.74208 8.00392 2.91396 7.45314 3.24599 6.76173C4.36318 4.42579 6.55458 2.8672 9.17958 2.54298C9.59755 2.48829 10.7733 2.51954 11.1913 2.59376Z" fill="#1076FC"/>
<path id="Vector_2" d="M9.60921 4.26562C9.51156 4.32031 9.38265 4.4375 9.31624 4.52734L9.19906 4.69531L9.18734 7.41406C9.17953 9.39062 9.18734 10.1797 9.22249 10.293C9.25765 10.4219 9.49593 10.6797 10.5975 11.7891C12.0194 13.2148 12.1483 13.3203 12.4881 13.3203C13.0936 13.3203 13.4881 12.7031 13.2381 12.1484C13.1795 12.0195 12.8475 11.6602 11.992 10.8008L10.8202 9.62891L10.8123 7.16406L10.8006 4.69922L10.6952 4.54688C10.5233 4.30469 10.3436 4.20312 10.0428 4.1875C9.82796 4.17578 9.75374 4.19141 9.60921 4.26562Z" fill="#1076FC"/>
</g>
</g>
<defs>
<clipPath id="clip0_131_2918">
<rect width="20" height="20" fill="white"/>
</clipPath>
</defs>
</svg>
