<svg width="56" height="56" viewBox="0 0 56 56" fill="none" xmlns="http://www.w3.org/2000/svg">
<path d="M26.3052 2.41718C21.3067 2.72343 16.2755 4.62656 12.2614 7.74374C10.927 8.77187 9.62547 10.0406 9.39578 10.5547C8.73953 11.9766 9.71297 13.65 11.2661 13.7594C12.152 13.825 12.5786 13.65 13.4317 12.8734C16.7567 9.81093 20.1802 8.09375 24.5005 7.30624C26.2942 6.97812 29.7067 6.97812 31.5005 7.30624C33.7427 7.71093 35.4927 8.29062 37.4067 9.24218C41.5958 11.3422 44.8989 14.7109 46.9223 18.9547C49.6677 24.7187 49.6677 31.2812 46.9114 37.0562C42.8098 45.6859 33.4364 50.3781 23.9645 48.5516C21.6348 48.1031 18.7802 46.9766 16.8442 45.7406L16.1552 45.3141L17.3583 44.9094C18.2005 44.625 18.6927 44.3953 19.0098 44.1328C20.1911 43.1156 20.0052 41.1578 18.6489 40.3922C17.7411 39.8891 17.6427 39.9 13.7927 41.1797C11.3864 41.9781 10.1723 42.4375 9.94265 42.6234C9.58172 42.9297 9.25359 43.5094 9.14422 44.0453C9.06765 44.3734 10.238 51.3187 10.5114 52.15C11.0364 53.7578 13.3552 54.1625 14.4708 52.8391C14.8973 52.325 15.0286 51.8109 14.9411 50.8922C14.9083 50.4547 14.8973 50.0937 14.9302 50.0937C14.952 50.0937 15.477 50.3672 16.1005 50.6844C18.9005 52.1719 22.1708 53.1562 25.3755 53.4953C27.1364 53.6812 30.6583 53.5719 32.2661 53.2766C34.9348 52.7953 36.7833 52.2047 39.102 51.0891C41.8255 49.7766 43.7395 48.4422 45.8723 46.375C50.477 41.9016 53.2442 35.8859 53.5723 29.5531C53.9114 23.2094 52.1395 17.3906 48.3333 12.3375C47.4036 11.1016 44.8005 8.52031 43.5317 7.56874C38.4348 3.77343 32.638 2.03437 26.3052 2.41718Z" fill="#1076FC"/>
<path d="M26.2719 12.9062C25.6484 13.0484 25.0906 13.5078 24.7844 14.1203L24.5 14.7V22.0719C24.5 27.5953 24.5328 29.5641 24.6312 29.9031C24.8062 30.4828 25.5172 31.1937 26.0969 31.3688C26.425 31.4672 28.0328 31.5 32.1672 31.5H37.7891L38.3578 31.2266C38.7844 31.0297 39.0141 30.8328 39.2547 30.45C39.8891 29.4656 39.8016 28.4484 39.025 27.6063C38.3031 26.8187 38.1281 26.7969 33.3375 26.7969H29.2031V20.9344C29.2031 16.9859 29.1594 14.9188 29.0828 14.6016C28.8969 13.8797 28.2297 13.1688 27.5297 12.9609C26.9281 12.7859 26.8078 12.775 26.2719 12.9062Z" fill="#1076FC"/>
<path d="M5.9285 15.7609C5.35975 16.0452 5.0535 16.4281 4.58319 17.4452C3.87225 18.9874 4.20038 20.2781 5.45819 20.9124C6.09257 21.2406 6.63944 21.2952 7.23007 21.0984C7.96288 20.8468 8.32382 20.4749 8.82694 19.3812C9.28632 18.4296 9.31913 18.2984 9.27538 17.6531C9.24257 17.1062 9.166 16.8656 8.91444 16.4937C8.25819 15.5749 6.95663 15.2577 5.9285 15.7609Z" fill="#1076FC"/>
<path d="M3.71916 23.9202C2.71291 24.4343 2.42853 25.0468 2.38478 26.8515C2.35197 27.8468 2.37385 27.9999 2.63635 28.4921C3.31447 29.8155 5.08635 30.1436 6.21291 29.1593C6.83635 28.6124 6.98947 28.1202 7.02228 26.6218C7.0551 25.364 7.04416 25.2983 6.74885 24.8061C6.36603 24.1499 5.6551 23.7124 4.87853 23.6468C4.4301 23.614 4.20041 23.6686 3.71916 23.9202Z" fill="#1076FC"/>
<path d="M5.05349 32.3969C4.43006 32.5391 3.56599 33.3484 3.40193 33.9609C3.22693 34.5844 3.24881 34.8031 3.55506 35.8094C3.89412 36.925 4.13474 37.3188 4.71443 37.7016C5.11912 37.975 5.28318 38.0078 6.01599 38.0078C6.75974 38.0078 6.90193 37.975 7.30662 37.6906C7.85349 37.3188 8.31287 36.4656 8.31287 35.8312C8.31287 35.5797 8.15974 34.9234 7.97381 34.3766C7.68943 33.5016 7.56912 33.3047 7.14256 32.9219C6.84724 32.6594 6.48631 32.4625 6.24568 32.4188C6.02693 32.3859 5.77537 32.3422 5.68787 32.3203C5.60037 32.3094 5.31599 32.3422 5.05349 32.3969Z" fill="#1076FC"/>
</svg>
