<svg width="56" height="56" viewBox="0 0 56 56" fill="none" xmlns="http://www.w3.org/2000/svg">
<g id="Pictogrammers-Material-Light-Monitor 1">
<path id="Vector" d="M8.8421 4.66675H47.1579C49.503 4.66675 51.752 5.57778 53.4102 7.19941C55.0684 8.82105 56 11.0205 56 13.3138V33.4903C56 35.7836 55.0684 37.983 53.4102 39.6047C51.752 41.2263 49.503 42.1373 47.1579 42.1373H33.8947L35.3684 50.7844H38.3158V53.6667H17.6842V50.7844H20.6316L22.1053 42.1373H8.8421C6.49703 42.1373 4.24801 41.2263 2.58979 39.6047C0.931577 37.983 0 35.7836 0 33.4903V13.3138C0 11.0205 0.931577 8.82105 2.58979 7.19941C4.24801 5.57778 6.49703 4.66675 8.8421 4.66675ZM25.0526 42.1373L23.5789 50.7844H32.4211L30.9474 42.1373H25.0526ZM8.8421 7.5491C7.27872 7.5491 5.77937 8.15645 4.6739 9.23754C3.56842 10.3186 2.94737 11.7849 2.94737 13.3138V33.4903C2.94737 35.0192 3.56842 36.4854 4.6739 37.5665C5.77937 38.6476 7.27872 39.255 8.8421 39.255H47.1579C48.7213 39.255 50.2206 38.6476 51.3261 37.5665C52.4316 36.4854 53.0526 35.0192 53.0526 33.4903V13.3138C53.0526 11.7849 52.4316 10.3186 51.3261 9.23754C50.2206 8.15645 48.7213 7.5491 47.1579 7.5491H8.8421Z" fill="#1076FC"/>
</g>
</svg>
