<svg width="28" height="28" viewBox="0 0 28 28" fill="none" xmlns="http://www.w3.org/2000/svg">
<path d="M13.1526 1.20871C10.6534 1.36184 8.13773 2.3134 6.1307 3.87199C5.46351 4.38606 4.81273 5.02043 4.69789 5.27746C4.36976 5.9884 4.85648 6.82512 5.63305 6.87981C6.07601 6.91262 6.2893 6.82512 6.71586 6.43684C8.37836 4.90559 10.0901 4.047 12.2502 3.65324C13.1471 3.48918 14.8534 3.48918 15.7502 3.65324C16.8713 3.85559 17.7463 4.14543 18.7034 4.62121C20.7979 5.67121 22.4495 7.35559 23.4612 9.47746C24.8338 12.3595 24.8338 15.6407 23.4557 18.5282C21.4049 22.8431 16.7182 25.1892 11.9823 24.2759C10.8174 24.0517 9.39008 23.4884 8.42211 22.8704L8.07758 22.6572L8.67914 22.4548C9.10023 22.3126 9.34633 22.1978 9.50492 22.0665C10.0955 21.5579 10.0026 20.579 9.32445 20.1962C8.87055 19.9447 8.82133 19.9501 6.89633 20.59C5.6932 20.9892 5.08617 21.2189 4.97133 21.3118C4.79086 21.465 4.6268 21.7548 4.57211 22.0228C4.53383 22.1868 5.11898 25.6595 5.2557 26.0751C5.5182 26.879 6.67758 27.0814 7.23539 26.4197C7.44867 26.1626 7.5143 25.9056 7.47055 25.4462C7.45414 25.2275 7.44867 25.047 7.46508 25.047C7.47601 25.047 7.73851 25.1837 8.05023 25.3423C9.45023 26.0861 11.0854 26.5782 12.6877 26.7478C13.5682 26.8407 15.3291 26.7861 16.133 26.6384C17.4674 26.3978 18.3916 26.1025 19.551 25.5447C20.9127 24.8884 21.8698 24.2212 22.9362 23.1876C25.2385 20.9509 26.6221 17.9431 26.7862 14.7767C26.9557 11.6048 26.0698 8.69543 24.1666 6.16887C23.7018 5.5509 22.4002 4.26028 21.7659 3.78449C19.2174 1.88684 16.319 1.01731 13.1526 1.20871Z" fill="#1B2BB1"/>
<path d="M13.1359 6.45312C12.8242 6.52422 12.5453 6.75391 12.3922 7.06016L12.25 7.35V11.0359C12.25 13.7977 12.2664 14.782 12.3156 14.9516C12.4031 15.2414 12.7586 15.5969 13.0484 15.6844C13.2125 15.7336 14.0164 15.75 16.0836 15.75H18.8945L19.1789 15.6133C19.3922 15.5148 19.507 15.4164 19.6273 15.225C19.9445 14.7328 19.9008 14.2242 19.5125 13.8031C19.1516 13.4094 19.0641 13.3984 16.6687 13.3984H14.6016V10.4672C14.6016 8.49297 14.5797 7.45938 14.5414 7.30078C14.4484 6.93984 14.1148 6.58438 13.7648 6.48047C13.4641 6.39297 13.4039 6.3875 13.1359 6.45312Z" fill="#1B2BB1"/>
<path d="M2.96474 7.88056C2.68037 8.02274 2.52724 8.21415 2.29208 8.72274C1.93662 9.49384 2.10068 10.1391 2.72958 10.4563C3.04677 10.6204 3.32021 10.6477 3.61552 10.5493C3.98193 10.4235 4.1624 10.2376 4.41396 9.69071C4.64365 9.21493 4.66005 9.14931 4.63818 8.82665C4.62177 8.55321 4.58349 8.4329 4.45771 8.24696C4.12958 7.78759 3.4788 7.62899 2.96474 7.88056Z" fill="#1B2BB1"/>
<path d="M1.85958 11.9603C1.35645 12.2174 1.21427 12.5236 1.19239 13.426C1.17599 13.9236 1.18692 14.0002 1.31817 14.2463C1.65724 14.908 2.54317 15.0721 3.10645 14.5799C3.41817 14.3064 3.49474 14.0603 3.51114 13.3111C3.52755 12.6822 3.52208 12.6494 3.37442 12.4033C3.18302 12.0752 2.82755 11.8564 2.43927 11.8236C2.21505 11.8072 2.1002 11.8346 1.85958 11.9603Z" fill="#1B2BB1"/>
<path d="M2.52724 16.1984C2.21552 16.2695 1.78349 16.6742 1.70145 16.9805C1.61395 17.2922 1.62489 17.4016 1.77802 17.9047C1.94755 18.4625 2.06786 18.6594 2.3577 18.8508C2.56005 18.9875 2.64208 19.0039 3.00849 19.0039C3.38036 19.0039 3.45145 18.9875 3.6538 18.8453C3.92724 18.6594 4.15692 18.2328 4.15692 17.9156C4.15692 17.7898 4.08036 17.4617 3.98739 17.1883C3.8452 16.7508 3.78505 16.6523 3.57177 16.4609C3.42411 16.3297 3.24364 16.2313 3.12333 16.2094C3.01395 16.193 2.88817 16.1711 2.84442 16.1602C2.80067 16.1547 2.65849 16.1711 2.52724 16.1984Z" fill="#1B2BB1"/>
</svg>
