<svg width="18" height="18" viewBox="0 0 18 18" fill="none" xmlns="http://www.w3.org/2000/svg">
<path d="M16.6154 0H1.38462C1.01739 0 0.66521 0.172402 0.405544 0.47928C0.145879 0.786157 0 1.20237 0 1.63636V16.3636C0 16.7976 0.145879 17.2138 0.405544 17.5207C0.66521 17.8276 1.01739 18 1.38462 18H16.6154C16.9826 18 17.3348 17.8276 17.5945 17.5207C17.8541 17.2138 18 16.7976 18 16.3636V1.63636C18 1.20237 17.8541 0.786157 17.5945 0.47928C17.3348 0.172402 16.9826 0 16.6154 0ZM16.6154 1.63636V12.1449L14.3593 9.47966C14.2307 9.32767 14.0781 9.2071 13.9101 9.12484C13.7421 9.04258 13.562 9.00025 13.3801 9.00025C13.1983 9.00025 13.0182 9.04258 12.8502 9.12484C12.6822 9.2071 12.5295 9.32767 12.401 9.47966L10.6702 11.5251L6.8625 7.02511C6.60286 6.71847 6.25082 6.54621 5.88375 6.54621C5.51668 6.54621 5.16464 6.71847 4.905 7.02511L1.38462 11.1856V1.63636H16.6154ZM1.38462 13.5L5.88462 8.18182L12.8077 16.3636H1.38462V13.5ZM16.6154 16.3636H14.7661L11.6507 12.6818L13.3814 10.6364L16.6154 14.4593V16.3636ZM10.3846 6.13636C10.3846 5.89363 10.4455 5.65635 10.5596 5.45453C10.6737 5.2527 10.8359 5.0954 11.0257 5.00251C11.2154 4.90962 11.4242 4.88532 11.6257 4.93267C11.8271 4.98003 12.0121 5.09691 12.1574 5.26855C12.3026 5.44019 12.4015 5.65887 12.4416 5.89693C12.4817 6.135 12.4611 6.38177 12.3825 6.60602C12.3039 6.83028 12.1708 7.02195 12 7.1568C11.8292 7.29166 11.6285 7.36364 11.4231 7.36364C11.1477 7.36364 10.8835 7.23433 10.6888 7.00418C10.494 6.77402 10.3846 6.46186 10.3846 6.13636Z" fill="#1076FC"/>
</svg>
