<svg
      class="logo"
      width="358"
      height="93"
      viewBox="0 0 358 93"
      fill="none"
      xmlns="http://www.w3.org/2000/svg"
    >
      <path
        d="M136.086 39.5249C134.726 37.3973 132.792 35.7961 130.306 34.7433C127.82 33.6905 124.887 33.1641 121.487 33.1641C117.769 33.1641 114.347 33.9098 111.202 35.3794C108.057 36.827 105.274 38.8449 102.851 41.4112L110.14 48.7152C111.564 46.9824 113.051 45.7541 114.602 44.9865C116.154 44.2407 117.917 43.8459 119.894 43.8459C121.87 43.8459 123.506 44.3723 124.632 45.3813C125.78 46.4122 126.354 47.9914 126.354 50.1409V51.0841H120.34C117.344 51.0841 114.73 51.3473 112.477 51.8956C110.204 52.444 108.334 53.2555 106.846 54.3303C105.337 55.4051 104.211 56.765 103.446 58.3881C102.702 60.0112 102.32 61.8756 102.32 64.0251C102.32 66.5475 102.915 68.7409 104.105 70.5834C105.295 72.4477 106.91 73.8954 108.971 74.9482C111.032 76.001 113.306 76.5274 115.856 76.5274C117.769 76.5274 119.617 76.1326 121.36 75.343C123.124 74.5534 124.739 73.4786 126.226 72.1187L126.354 71.9871V75.7378H138.147V47.7063C138.147 44.3942 137.467 41.6744 136.086 39.5249ZM125.695 64.6612C124.76 65.4947 123.697 66.1308 122.507 66.5914C121.317 67.0301 120.064 67.2494 118.746 67.2494C117.832 67.2494 117.025 67.0959 116.345 66.7888C115.665 66.4598 115.112 66.0211 114.709 65.4508C114.305 64.8586 114.114 64.1786 114.114 63.411C114.114 62.6433 114.241 62.0511 114.517 61.5246C114.794 60.9982 115.219 60.5376 115.771 60.1428C116.324 59.748 117.025 59.4628 117.832 59.2874C118.64 59.09 119.575 59.0022 120.637 59.0022H126.354V64.0251C126.141 64.2444 125.929 64.4638 125.695 64.6612Z"
        fill="#0A113D"
      />
      <path
        d="M175.123 17.6348V38.0992C174.528 37.485 173.89 36.9148 173.168 36.3883C171.829 35.4013 170.299 34.6117 168.599 34.0414C166.92 33.4711 165.156 33.164 163.329 33.164C159.823 33.164 156.699 34.1072 153.936 35.9935C151.153 37.8798 148.985 40.468 147.434 43.7362C145.84 47.0044 145.075 50.7331 145.075 54.9225C145.075 59.1119 145.84 62.8407 147.434 66.1088C148.985 69.377 151.153 71.9432 153.936 73.7638C156.699 75.6062 159.801 76.5274 163.244 76.5274C165.114 76.5274 166.899 76.2642 168.578 75.7378C170.235 75.2114 171.744 74.4876 173.104 73.5663C174.081 72.9083 174.931 72.1626 175.633 71.3291L175.951 75.7378H187.363V17.6348H175.123ZM171.128 64.705C169.768 65.6043 168.174 66.0649 166.283 66.0649C164.391 66.0649 162.883 65.6043 161.544 64.705C160.184 63.7838 159.143 62.4897 158.378 60.8227C157.613 59.1338 157.23 57.1817 157.23 54.9225C157.23 52.6633 157.613 50.6235 158.378 48.9565C159.143 47.2895 160.184 45.9954 161.544 45.0742C162.883 44.1529 164.455 43.6923 166.283 43.6923C168.11 43.6923 169.768 44.1529 171.128 45.0742C172.466 45.9954 173.508 47.2895 174.273 48.9565C175.038 50.6235 175.42 52.6194 175.42 54.9225C175.42 57.2256 175.038 59.1338 174.273 60.8227C173.508 62.4897 172.466 63.7838 171.128 64.705Z"
        fill="#0A113D"
      />
      <path
        d="M211.247 76.5274C207.401 76.5274 203.937 75.8913 200.898 74.5972C197.86 73.3251 195.416 71.5484 193.588 69.2892L201.047 62.6871C202.62 64.3102 204.405 65.4947 206.381 66.2623C208.357 67.03 210.227 67.4029 212.012 67.4029C212.671 67.4029 213.245 67.3152 213.755 67.1616C214.265 67.0081 214.711 66.7888 215.093 66.5036C215.476 66.2185 215.773 65.8675 215.965 65.4727C216.156 65.0779 216.262 64.6173 216.262 64.0909C216.262 63.0381 215.837 62.2484 214.966 61.744C214.562 61.4807 213.818 61.1517 212.756 60.7569C211.693 60.3621 210.312 59.9673 208.655 59.5286C206.275 58.8925 204.213 58.1468 202.45 57.2475C200.707 56.3482 199.262 55.3393 198.157 54.1768C197.137 53.1239 196.372 51.9176 195.841 50.5576C195.31 49.1977 195.033 47.6843 195.033 45.9954C195.033 43.4291 195.777 41.1699 197.286 39.2397C198.773 37.3096 200.75 35.7961 203.172 34.7214C205.616 33.6466 208.251 33.1202 211.077 33.1202C213.308 33.1202 215.433 33.3834 217.431 33.9098C219.428 34.4362 221.32 35.16 223.062 36.1032C224.805 37.0463 226.377 38.165 227.737 39.481L221.277 46.9386C220.406 46.0393 219.407 45.2496 218.238 44.5478C217.07 43.8459 215.901 43.2756 214.732 42.815C213.563 42.3763 212.48 42.157 211.46 42.157C210.695 42.157 210.036 42.2228 209.441 42.3544C208.867 42.486 208.378 42.7053 207.996 42.9904C207.613 43.2756 207.316 43.6265 207.125 43.9994C206.912 44.3942 206.827 44.8329 206.827 45.2935C206.827 45.8638 206.976 46.3902 207.252 46.8289C207.528 47.2676 207.932 47.6843 208.421 48.0352C208.867 48.2985 209.675 48.6494 210.822 49.0661C211.97 49.4829 213.478 49.9654 215.348 50.4699C217.728 51.1499 219.768 51.9176 221.468 52.7949C223.168 53.6503 224.528 54.6593 225.548 55.8218C226.42 56.7211 227.036 57.752 227.418 58.9145C227.801 60.0989 227.992 61.3711 227.992 62.731C227.992 65.4069 227.27 67.7758 225.825 69.8376C224.38 71.8994 222.403 73.5225 219.896 74.7069C217.388 75.8913 214.498 76.4836 211.268 76.4836L211.247 76.5274Z"
        fill="#0A113D"
      />
      <path
        d="M275.039 43.6485C273.487 40.3804 271.362 37.8361 268.685 35.9936C265.986 34.1731 262.926 33.2519 259.484 33.2519C257.146 33.2519 254.936 33.6905 252.854 34.546C250.771 35.4014 249.05 36.542 247.648 37.9238C247.478 38.0773 247.329 38.2528 247.18 38.4063L246.925 34.0415H235.28V92.9999H247.605V71.5485C248.986 72.9961 250.729 74.1806 252.79 75.0579C254.873 75.9792 257.061 76.4398 259.399 76.4398C262.841 76.4398 265.922 75.5185 268.642 73.6542C271.362 71.7898 273.487 69.2454 275.039 65.9992C276.59 62.753 277.355 59.0681 277.355 54.9226C277.355 50.7771 276.59 46.9386 275.039 43.6485ZM264.307 60.6254C263.564 62.2705 262.523 63.5426 261.184 64.42C259.845 65.3193 258.251 65.7579 256.424 65.7579C254.596 65.7579 252.939 65.3193 251.558 64.42C250.198 63.5426 249.135 62.2705 248.37 60.6254C247.605 58.9584 247.223 57.0721 247.223 54.9226C247.223 52.6634 247.605 50.7332 248.37 49.1101C249.135 47.487 250.198 46.2148 251.558 45.2936C252.939 44.3943 254.554 43.9337 256.424 43.9337C258.294 43.9337 259.845 44.3943 261.184 45.2936C262.523 46.2148 263.564 47.5089 264.307 49.154C265.051 50.799 265.413 52.7292 265.413 54.9226C265.413 57.116 265.051 58.9584 264.307 60.6254Z"
        fill="#0A113D"
      />
      <path
        d="M304.281 76.5274C300.116 76.5274 296.397 75.6062 293.103 73.7418C289.809 71.8775 287.217 69.3112 285.347 66.043C283.477 62.7749 282.542 59.068 282.542 54.9225C282.542 50.777 283.477 46.9166 285.347 43.6485C287.217 40.3803 289.809 37.8141 293.103 35.9497C296.397 34.0853 300.137 33.1641 304.281 33.1641C308.424 33.1641 312.228 34.0853 315.501 35.9497C318.773 37.8141 321.344 40.3803 323.214 43.6485C325.084 46.9166 326.019 50.6673 326.019 54.9225C326.019 59.1777 325.084 62.7529 323.214 66.043C321.344 69.3112 318.773 71.8775 315.501 73.7418C312.228 75.6062 308.488 76.5274 304.281 76.5274ZM304.281 65.6921C306.108 65.6921 307.723 65.2315 309.104 64.2883C310.507 63.3452 311.612 62.073 312.419 60.4499C313.227 58.8268 313.609 56.9843 313.567 54.9445C313.609 52.7949 313.227 50.9086 312.419 49.2416C311.612 47.5966 310.486 46.3025 309.062 45.4032C307.638 44.482 306.044 44.0214 304.259 44.0214C302.474 44.0214 300.881 44.482 299.457 45.4251C298.033 46.3683 296.928 47.6405 296.099 49.2636C295.292 50.8867 294.888 52.773 294.888 54.9225C294.888 57.0721 295.292 58.8048 296.099 60.4279C296.907 62.0511 298.033 63.3232 299.457 64.2664C300.881 65.2095 302.474 65.6702 304.259 65.6702L304.281 65.6921Z"
        fill="#0A113D"
      />
      <path
        d="M357.384 45.1179H349.628V60.3839C349.628 62.0509 350.287 63.1257 351.583 63.5643C352.879 64.003 355.026 64.1565 358.001 63.9811V75.3867C350.244 76.2202 344.826 75.4525 341.851 73.0837C338.876 70.7148 337.388 66.4596 337.388 60.362V45.096H330.248V34.0193H337.452V23.491H349.649V34.0193H357.406V45.096L357.384 45.1179Z"
        fill="#0A113D"
      />
      <path
        d="M29.8567 76.5274L41.2679 56.1289L52.6792 76.5274H29.8567Z"
        fill="#1B2BB1"
      />
      <path
        d="M0 66.3062C0 64.5515 0.425 62.9064 1.16875 61.4807C1.3175 61.1736 1.50875 60.8885 1.67875 60.6033L22.7162 22.9647L41.2675 56.1288L29.8562 76.5274H9.88124C4.42 76.5274 0 71.9432 0 66.3062Z"
        fill="#1076FC"
      />
      <path
        d="M22.7163 22.9648L32.5763 5.35188C32.5763 5.35188 32.5975 5.30801 32.5975 5.28608C34.2763 2.12759 37.5275 0 41.2675 0C44.6888 0 47.685 1.77665 49.47 4.49646C49.6613 4.80353 49.8525 5.13254 50.0225 5.46155L59.8188 22.9648L80.8562 60.6035C81.0475 60.9105 81.2388 61.2395 81.4087 61.5685C82.1312 62.9723 82.535 64.5954 82.535 66.3063C82.535 71.9433 78.115 76.5275 72.6538 76.5275H52.6788L41.2675 56.1289L22.7163 22.9648Z"
        fill="#5EEBFB"
      />
    </svg>