<svg width="184" height="49" viewBox="0 0 184 49" fill="none" xmlns="http://www.w3.org/2000/svg">
<g clip-path="url(#clip0_64_2052)">
<path d="M61.2074 40.8679C59.9209 40.8679 58.7578 40.6078 57.715 40.0937C56.6722 39.5766 55.8485 38.8612 55.2469 37.9446C54.6422 37.0279 54.3398 35.9502 54.3398 34.7115C54.3398 33.6524 54.5311 32.7234 54.9199 31.9244C55.3055 31.1255 55.8793 30.4597 56.6383 29.9301C57.3973 29.4006 58.3475 29.0011 59.4921 28.7286C60.6367 28.4561 61.9664 28.3229 63.4843 28.3229H69.6948L69.3461 32.2341H63.6355C63.0956 32.2341 62.6205 32.2806 62.207 32.3704C61.7967 32.4602 61.4481 32.6026 61.1643 32.7977C60.8804 32.9897 60.6675 33.2189 60.5287 33.4759C60.3868 33.7361 60.3158 34.0457 60.3158 34.405C60.3158 34.7921 60.4176 35.1296 60.6243 35.4114C60.8311 35.6963 61.1056 35.9162 61.4543 36.071C61.8029 36.2259 62.207 36.3033 62.6698 36.3033C63.3393 36.3033 63.9749 36.1949 64.5795 35.975C65.1842 35.7551 65.7242 35.4393 66.1993 35.0274C66.6744 34.6155 67.0539 34.1355 67.3377 33.5936L68.4175 36.3807C67.8776 37.2602 67.2266 38.0344 66.4677 38.7033C65.7087 39.3753 64.885 39.9048 63.9995 40.2919C63.111 40.679 62.1793 40.8741 61.2013 40.8741L61.2074 40.8679ZM66.5325 40.4808V27.8553C66.5325 26.7962 66.2425 26.0158 65.6655 25.511C65.0855 25.0062 64.2834 24.7554 63.2529 24.7554C62.2225 24.7554 61.3555 24.9443 60.5719 25.3159C59.7883 25.6906 59.0355 26.3038 58.3135 27.1554L54.6083 23.5539C55.8423 22.2904 57.2584 21.2963 58.8535 20.5717C60.4485 19.8501 62.1854 19.4878 64.0612 19.4878C65.7828 19.4878 67.276 19.7448 68.5378 20.262C69.7966 20.7791 70.7746 21.5657 71.4687 22.6248C72.1629 23.6839 72.5115 25.0248 72.5115 26.6537V40.4808H66.5325Z" fill="#0A113D"/>
<path d="M85.245 40.8677C83.4957 40.8677 81.9192 40.4156 80.5185 39.5113C79.1148 38.6071 78.0165 37.3498 77.2205 35.7364C76.4214 34.1229 76.0234 32.2835 76.0234 30.2179C76.0234 28.1524 76.4214 26.3129 77.2205 24.6995C78.0165 23.086 79.1179 21.8133 80.5185 20.8842C81.9192 19.9552 83.5081 19.4907 85.2821 19.4907C86.2076 19.4907 87.1023 19.6331 87.9631 19.918C88.8238 20.2029 89.5951 20.59 90.277 21.0793C90.9588 21.5717 91.5172 22.126 91.9553 22.7454C92.3934 23.3648 92.6618 24.0244 92.7667 24.7211L91.2611 25.0711V11.8262H97.4716V40.4837H91.6838L91.3352 35.8355L92.5692 36.0677C92.5168 36.6871 92.2854 37.2878 91.8751 37.87C91.4617 38.4522 90.9156 38.9663 90.2369 39.4184C89.555 39.8706 88.7899 40.2267 87.9415 40.4837C87.0931 40.7407 86.1922 40.8708 85.2419 40.8708L85.245 40.8677ZM86.7876 35.7178C87.7379 35.7178 88.5554 35.4917 89.2372 35.0396C89.9191 34.5875 90.4528 33.9495 90.8385 33.1227C91.2241 32.2958 91.4185 31.3297 91.4185 30.2179C91.4185 29.1062 91.2241 28.1028 90.8385 27.276C90.4528 26.4491 89.9191 25.8112 89.2372 25.3591C88.5554 24.9069 87.7379 24.6809 86.7876 24.6809C85.8374 24.6809 85.0568 24.9069 84.375 25.3591C83.6932 25.8112 83.1595 26.4491 82.7738 27.276C82.3882 28.1028 82.1938 29.0845 82.1938 30.2179C82.1938 31.3513 82.3851 32.2958 82.7738 33.1227C83.1595 33.9495 83.6932 34.5875 84.375 35.0396C85.0568 35.4917 85.859 35.7178 86.7876 35.7178Z" fill="#0A113D"/>
<path d="M109.59 40.8676C107.634 40.8676 105.888 40.5517 104.342 39.92C102.799 39.2882 101.565 38.4149 100.637 37.3063L104.419 34.0547C105.215 34.8567 106.116 35.442 107.122 35.8168C108.124 36.1915 109.075 36.3773 109.976 36.3773C110.309 36.3773 110.605 36.337 110.864 36.2596C111.12 36.1822 111.345 36.0738 111.54 35.9313C111.734 35.7889 111.879 35.6217 111.984 35.4266C112.086 35.2315 112.138 35.0085 112.138 34.7484C112.138 34.2312 111.919 33.8441 111.481 33.5871C111.274 33.457 110.901 33.296 110.361 33.104C109.821 32.912 109.127 32.7107 108.279 32.5032C107.069 32.1935 106.023 31.8188 105.135 31.3791C104.246 30.9393 103.521 30.4377 102.954 29.8678C102.438 29.3507 102.047 28.7592 101.778 28.0872C101.507 27.4152 101.374 26.6689 101.374 25.842C101.374 24.5786 101.754 23.4668 102.513 22.513C103.271 21.5592 104.268 20.816 105.502 20.2864C106.736 19.7569 108.075 19.4937 109.516 19.4937C110.648 19.4937 111.722 19.6237 112.737 19.8807C113.752 20.1378 114.705 20.5001 115.591 20.9646C116.479 21.4291 117.269 21.9835 117.963 22.6307L114.684 26.3097C114.245 25.8699 113.73 25.4766 113.141 25.1298C112.549 24.7798 111.956 24.498 111.367 24.2782C110.775 24.0583 110.222 23.9499 109.707 23.9499C109.321 23.9499 108.979 23.984 108.686 24.0459C108.39 24.1109 108.146 24.2131 107.952 24.3556C107.757 24.498 107.609 24.6653 107.507 24.8604C107.406 25.0524 107.353 25.266 107.353 25.4983C107.353 25.7832 107.424 26.034 107.566 26.2539C107.708 26.4738 107.905 26.6751 108.165 26.8547C108.396 26.9847 108.8 27.152 109.38 27.3595C109.96 27.5669 110.725 27.7992 111.675 28.0562C112.885 28.3907 113.918 28.7716 114.782 29.1989C115.643 29.6263 116.331 30.1218 116.846 30.6916C117.284 31.1313 117.599 31.6392 117.79 32.2214C117.982 32.8036 118.08 33.4291 118.08 34.1011C118.08 35.4173 117.713 36.5878 116.982 37.6067C116.248 38.6255 115.245 39.4276 113.974 40.0067C112.7 40.5889 111.24 40.8769 109.596 40.8769L109.59 40.8676Z" fill="#0A113D"/>
<path d="M121.781 49V19.9151H127.683L127.955 24.4457L126.758 24.0957C126.912 23.2689 127.341 22.5133 128.05 21.8289C128.757 21.1445 129.639 20.5902 130.694 20.1628C131.749 19.7355 132.866 19.5249 134.051 19.5249C135.8 19.5249 137.355 19.977 138.719 20.8813C140.083 21.7855 141.156 23.0428 141.94 24.6563C142.723 26.2697 143.115 28.1215 143.115 30.215C143.115 32.3084 142.723 34.0766 141.94 35.6746C141.156 37.2756 140.073 38.536 138.7 39.4495C137.324 40.3662 135.76 40.8245 134.011 40.8245C132.829 40.8245 131.709 40.5984 130.654 40.1463C129.599 39.6942 128.711 39.1089 127.992 38.3843C127.27 37.6627 126.807 36.873 126.603 36.0214L128.032 35.4392V48.9938H121.781V49ZM132.508 35.5631C133.434 35.5631 134.239 35.3432 134.921 34.9035C135.603 34.4637 136.13 33.8382 136.504 33.0237C136.877 32.2093 137.062 31.2741 137.062 30.215C137.062 29.1559 136.874 28.1804 136.504 27.369C136.13 26.5546 135.603 25.9228 134.921 25.4707C134.239 25.0186 133.434 24.7925 132.508 24.7925C131.583 24.7925 130.734 25.0186 130.04 25.4707C129.346 25.9228 128.806 26.5484 128.421 27.3504C128.035 28.1525 127.841 29.1063 127.841 30.215C127.841 31.3236 128.032 32.2093 128.421 33.0237C128.809 33.8382 129.346 34.4637 130.04 34.9035C130.734 35.3432 131.558 35.5631 132.508 35.5631Z" fill="#0A113D"/>
<path d="M156.778 40.8676C154.668 40.8676 152.779 40.4093 151.107 39.4926C149.435 38.576 148.124 37.3125 147.171 35.696C146.217 34.0826 145.742 32.2555 145.742 30.2147C145.742 28.1739 146.217 26.2725 147.171 24.656C148.121 23.0426 149.432 21.776 151.107 20.8593C152.779 19.9427 154.671 19.4844 156.778 19.4844C158.885 19.4844 160.81 19.9427 162.47 20.8593C164.13 21.776 165.435 23.0426 166.385 24.656C167.335 26.2694 167.814 28.1213 167.814 30.2147C167.814 32.3081 167.338 34.0826 166.385 35.696C165.435 37.3094 164.127 38.576 162.47 39.4926C160.81 40.4093 158.913 40.8676 156.778 40.8676ZM156.778 35.5226C157.703 35.5226 158.521 35.2903 159.227 34.8258C159.934 34.3613 160.495 33.7295 160.906 32.9275C161.316 32.1285 161.511 31.2242 161.486 30.2147C161.511 29.1556 161.319 28.2204 160.906 27.4059C160.495 26.5915 159.928 25.9597 159.209 25.5076C158.487 25.0555 157.679 24.8294 156.778 24.8294C155.877 24.8294 155.066 25.0617 154.347 25.5262C153.625 25.9907 153.06 26.6224 152.65 27.4245C152.24 28.2266 152.033 29.1556 152.033 30.2116C152.033 31.2676 152.24 32.1223 152.65 32.9244C153.06 33.7264 153.628 34.3582 154.347 34.8227C155.066 35.2872 155.877 35.5195 156.778 35.5195V35.5226Z" fill="#0A113D"/>
<path d="M184 25.5323H179.739V32.8809C179.739 33.7109 180.069 34.2373 180.733 34.4603C181.396 34.6833 182.482 34.7514 184 34.6678V40.3132C180.057 40.7282 177.327 40.3473 175.809 39.1705C174.291 37.9937 173.535 35.8972 173.535 32.8809V25.5323H170.225V19.5524H173.535V14.644H179.739V19.5524H184V25.5323Z" fill="#0A113D"/>
<path d="M15.8574 40.5269L21.9167 29.9917L27.9791 40.5269H15.8574Z" fill="#1B2BB1"/>
<path d="M0 35.2469C0 34.3396 0.225218 33.4911 0.620121 32.754C0.700335 32.5961 0.802146 32.4475 0.891616 32.3019L12.0661 12.8604L21.9202 29.9886L15.8578 40.5238H5.24789C2.34782 40.5238 0 38.1548 0 35.2438V35.2469Z" fill="#1076FC"/>
<path d="M12.0664 12.8603L17.302 3.762C17.302 3.762 17.3143 3.74032 17.3143 3.72794C18.2059 2.09594 19.9336 0.996582 21.9205 0.996582C23.7376 0.996582 25.3296 1.91323 26.2767 3.31916C26.3785 3.4771 26.4804 3.64742 26.5698 3.81774L31.7714 12.8572L42.9459 32.2988C43.0478 32.4567 43.1496 32.627 43.239 32.7974C43.6216 33.522 43.8376 34.3612 43.8376 35.2438C43.8376 38.1548 41.4897 40.5238 38.5897 40.5238H27.9798L21.9205 29.9886L12.0664 12.8603Z" fill="#5EEBFB"/>
</g>
<defs>
<clipPath id="clip0_64_2052">
<rect width="184" height="49" fill="white"/>
</clipPath>
</defs>
</svg>
