<svg width="48" height="48" viewBox="0 0 48 48" fill="none" xmlns="http://www.w3.org/2000/svg">
<g id="Logo" clip-path="url(#clip0_64_2751)">
<g id="Layer 1">
<g id="Group">
<g id="Group_2">
<path id="Vector" d="M17.3633 45.1405L23.9979 33.605L30.6359 45.1405H17.3633Z" fill="#1B2BB1"/>
<path id="Vector_2" d="M0 39.3594C0 38.3659 0.246603 37.4368 0.679002 36.6298C0.766833 36.4568 0.878311 36.2941 0.976277 36.1347L13.2118 14.8472L24.0015 33.6018L17.3635 45.1373H5.74618C2.57075 45.1373 0 42.5434 0 39.356V39.3594Z" fill="#1076FC"/>
<path id="Vector_3" d="M13.2109 14.8472L18.9436 4.88493C18.9436 4.88493 18.9571 4.8612 18.9571 4.84763C19.9334 3.06067 21.8251 1.85693 24.0007 1.85693C25.9904 1.85693 27.7335 2.86062 28.7706 4.40005C28.882 4.57298 28.9935 4.75947 29.0915 4.94597L34.787 14.8438L47.0225 36.1313C47.134 36.3042 47.2455 36.4907 47.3435 36.6772C47.7623 37.4707 47.9988 38.3896 47.9988 39.356C47.9988 42.5433 45.4281 45.1373 42.2526 45.1373H30.6353L24.0007 33.6018L13.2109 14.8472Z" fill="#5EEBFB"/>
</g>
</g>
</g>
</g>
<defs>
<clipPath id="clip0_64_2751">
<rect width="48" height="48" fill="white"/>
</clipPath>
</defs>
</svg>
