<svg width="24" height="24" viewBox="0 0 24 24" fill="none" xmlns="http://www.w3.org/2000/svg">
<g id="maximize-_1_ 1">
<g id="Group">
<path id="Vector" d="M7.33594 1.33594C3.73125 1.73906 1.91719 3.45 1.37812 6.96094C1.29375 7.48125 1.28906 7.875 1.28906 12C1.28906 16.0734 1.29844 16.5234 1.37344 17.0156C1.90781 20.4563 3.57187 22.1156 7.00781 22.6266C7.51875 22.7016 7.98281 22.7109 12.0234 22.7109C16.8937 22.7109 16.875 22.7109 18.0422 22.425C20.5219 21.8109 21.9656 20.2875 22.4953 17.7188C22.725 16.6219 22.7391 16.2 22.7203 11.6578C22.7016 7.02188 22.7062 7.11094 22.4062 5.89688C21.8297 3.57656 20.3859 2.14688 18.0469 1.575C16.8797 1.29375 16.9594 1.29375 12.2344 1.28438C8.85469 1.275 7.77187 1.28906 7.33594 1.33594ZM16.9922 2.87344C19.3312 3.29063 20.475 4.27969 20.9766 6.31875C21.2062 7.23281 21.2109 7.38281 21.2109 12.0469C21.2109 16.7672 21.2109 16.7906 20.9578 17.775C20.5172 19.4906 19.4906 20.5172 17.775 20.9578C16.7906 21.2109 16.7672 21.2109 12.0469 21.2109C7.38281 21.2109 7.23281 21.2063 6.31875 20.9766C4.22812 20.4609 3.17812 19.1859 2.85 16.7859C2.76094 16.1344 2.76094 7.86563 2.85 7.21406C3.17812 4.81406 4.22812 3.53906 6.31875 3.02344C6.5625 2.9625 6.95156 2.8875 7.19062 2.86406C7.425 2.83594 7.68281 2.80313 7.75781 2.79375C7.8375 2.78438 9.84844 2.77969 12.2344 2.78906C15.975 2.79844 16.6266 2.80781 16.9922 2.87344Z" fill="#1076FC"/>
<path id="Vector_2" d="M13.7344 5.30176C13.3125 5.47051 13.1297 6.01894 13.3734 6.37519C13.6078 6.72676 13.6031 6.72207 14.9578 6.75019L16.1719 6.77363L11.4656 11.4799L6.75469 16.1908L6.74062 14.9674C6.72656 13.8096 6.72187 13.7346 6.62812 13.608C6.28594 13.1486 5.71406 13.1486 5.37187 13.608C5.27344 13.7393 5.27344 13.7814 5.27344 16.008C5.27344 18.2346 5.27344 18.2768 5.37187 18.408C5.42344 18.4783 5.54062 18.5861 5.625 18.6471L5.78437 18.7549L8.02031 18.7408C10.2094 18.7268 10.2609 18.7268 10.3922 18.6283C10.8516 18.2861 10.8516 17.7143 10.3922 17.3721C10.2656 17.2783 10.1906 17.2736 9.03281 17.2596L7.80937 17.2455L12.5203 12.5346L17.2266 7.82832L17.25 9.04238C17.2734 10.1814 17.2781 10.2658 17.3719 10.3924C17.7141 10.8518 18.2859 10.8518 18.6281 10.3924C18.7266 10.2611 18.7266 10.2096 18.7406 8.02051L18.7547 5.78457L18.6469 5.62519C18.5859 5.54082 18.4781 5.42363 18.4078 5.37207C18.2766 5.27363 18.225 5.27363 16.0641 5.26426C14.6578 5.25957 13.8094 5.27363 13.7344 5.30176Z" fill="#1076FC"/>
</g>
</g>
</svg>
