<svg width="57" height="56" viewBox="0 0 57 56" fill="none" xmlns="http://www.w3.org/2000/svg">
<g clip-path="url(#clip0_248_3101)">
<path d="M13.0253 0.174999C11.3108 0.62344 9.96377 2.05625 9.58525 3.80625C9.40713 4.62656 9.40713 44.3734 9.58525 45.1938C9.85244 46.4516 10.7431 47.7203 11.7673 48.3C12.9362 48.9781 13.1366 49 18.447 49C22.2767 49 23.2786 49.0328 23.2452 49.1422C23.2118 49.2078 22.8556 50.2688 22.4437 51.4938L21.6866 53.7031H20.128H18.5694L18.1798 54.0859C17.8235 54.4359 17.7901 54.5234 17.8458 54.9281C17.8792 55.2125 18.0128 55.4859 18.1909 55.6609L18.4804 55.9453H28.4999H38.5194L38.8089 55.6609C38.987 55.4859 39.1206 55.2125 39.154 54.9281C39.2097 54.5234 39.1763 54.4359 38.82 54.0859L38.4304 53.7031H36.8718H35.3132L34.5562 51.4938C34.1442 50.2688 33.788 49.2078 33.7546 49.1312C33.7212 49.0328 34.7231 49 38.5528 49C43.8632 49 44.0636 48.9781 45.2325 48.3C46.2567 47.7203 47.1474 46.4516 47.4146 45.1938C47.5927 44.3734 47.5927 4.62656 47.4146 3.80625C47.036 2.02344 45.6778 0.612499 43.9188 0.164062C42.9503 -0.076561 13.9716 -0.076561 13.0253 0.174999ZM43.8632 2.625C44.1304 2.77813 44.5089 3.11719 44.6981 3.36875L45.0321 3.85V24.5V45.15L44.6981 45.6313C44.5089 45.8828 44.1304 46.2219 43.8632 46.375L43.3622 46.6484H28.4999H13.6376L13.1366 46.375C12.8694 46.2219 12.4909 45.8828 12.3017 45.6313L11.9677 45.15V24.5V3.85L12.3017 3.37969C12.6802 2.85469 13.1923 2.51562 13.7935 2.39531C14.0161 2.35156 20.7626 2.32969 28.7782 2.34063L43.3622 2.35156L43.8632 2.625ZM31.9733 51.2969C32.3853 52.5219 32.7304 53.5719 32.7304 53.6156C32.7304 53.6703 30.8267 53.7031 28.4999 53.7031C26.1731 53.7031 24.2694 53.6594 24.2694 53.6156C24.2694 53.55 25.5831 49.6234 25.7724 49.1312C25.8058 49.0219 26.4181 49 28.511 49.0219L31.2052 49.0547L31.9733 51.2969Z" fill="#0A113D"/>
</g>
<defs>
<clipPath id="clip0_248_3101">
<rect width="57" height="56" fill="white"/>
</clipPath>
</defs>
</svg>
