<svg width="57" height="56" viewBox="0 0 57 56" fill="none" xmlns="http://www.w3.org/2000/svg">
<path d="M9 4.66663H48C50.3869 4.66663 52.6761 5.57765 54.364 7.19929C56.0518 8.82093 57 11.0203 57 13.3137V33.4902C57 35.7835 56.0518 37.9829 54.364 39.6045C52.6761 41.2262 50.3869 42.1372 48 42.1372H34.5L36 50.7843H39V53.6666H18V50.7843H21L22.5 42.1372H9C6.61305 42.1372 4.32387 41.2262 2.63604 39.6045C0.948212 37.9829 0 35.7835 0 33.4902V13.3137C0 11.0203 0.948212 8.82093 2.63604 7.19929C4.32387 5.57765 6.61305 4.66663 9 4.66663ZM25.5 42.1372L24 50.7843H33L31.5 42.1372H25.5ZM9 7.54898C7.4087 7.54898 5.88258 8.15633 4.75736 9.23742C3.63214 10.3185 3 11.7848 3 13.3137V33.4902C3 35.019 3.63214 36.4853 4.75736 37.5664C5.88258 38.6475 7.4087 39.2549 9 39.2549H48C49.5913 39.2549 51.1174 38.6475 52.2426 37.5664C53.3679 36.4853 54 35.019 54 33.4902V13.3137C54 11.7848 53.3679 10.3185 52.2426 9.23742C51.1174 8.15633 49.5913 7.54898 48 7.54898H9Z" fill="#0A113D"/>
</svg>
