<svg xmlns="http://www.w3.org/2000/svg" width="24" height="24" viewBox="0 0 24 24" fill="none">
<path d="M18.5388 19.9686C19.6309 19.6733 20.4606 18.8764 20.8497 17.742L20.9763 17.367L20.9903 12.2108C20.9997 8.79826 20.9856 6.9467 20.9528 6.74045C20.7888 5.65764 20.1278 4.74826 19.1575 4.25608C18.3044 3.82483 17.095 3.82014 16.2559 4.2467C16.12 4.31701 15.4919 4.67326 14.8591 5.03889C14.2263 5.40451 13.2138 5.98576 12.6091 6.33733C6.96531 9.59045 7.50906 9.2717 7.24188 9.51077C6.75906 9.94202 6.42625 10.4623 6.22938 11.1092C6.07469 11.6061 6.07469 12.3936 6.22938 12.8905C6.47313 13.692 6.98407 14.3811 7.61688 14.7748C8.19344 15.1358 16.1013 19.678 16.3497 19.7905C16.5091 19.8608 16.7716 19.9545 16.9356 19.992C17.3481 20.0905 18.1309 20.0764 18.5388 19.9686ZM16.8981 18.3889C16.0638 17.9576 8.38094 13.4811 8.19344 13.317C7.63563 12.8248 7.46219 12.0608 7.73875 11.3155C7.95438 10.7436 7.95438 10.7436 12.6513 8.03889C14.9763 6.69826 16.9919 5.56389 17.1231 5.51701C17.4841 5.39045 18.0747 5.41858 18.4309 5.58733C18.7497 5.73264 19.0778 6.02795 19.2419 6.30451C19.5091 6.76389 19.5044 6.61389 19.4903 12.1217C19.4763 17.0389 19.4716 17.1842 19.3825 17.4045C19.1856 17.878 18.8153 18.253 18.3466 18.4498C18.1028 18.553 18.0138 18.5623 17.6247 18.5483C17.2356 18.5342 17.1419 18.5155 16.8981 18.3889Z" fill="#1076FC"/>
<path d="M4.03086 18.8857C4.18086 18.8247 4.34961 18.6654 4.43399 18.506C4.53242 18.3185 4.53242 5.74661 4.43398 5.51224C4.19961 4.95443 3.38867 4.93568 3.10742 5.47943L2.99961 5.68568L2.99961 11.9951L2.99961 18.3091L3.10274 18.5154C3.27149 18.8482 3.69805 19.0169 4.03086 18.8857Z" fill="#1076FC"/>
</svg>