<svg width="28" height="28" viewBox="0 0 28 28" fill="none" xmlns="http://www.w3.org/2000/svg">
<g id="open-folder 1">
<g id="Group">
<path id="Vector" d="M2.98064 3.19262C1.8869 3.34028 0.875194 4.03637 0.38848 4.99085C-0.0216715 5.7924 0.00020322 5.20706 0.00020322 14.5831C0.00020322 23.9645 -0.0216715 23.3739 0.38848 24.1807C0.820507 25.0139 1.71737 25.6994 2.67986 25.9314C2.92595 25.9895 4.95484 26 14.0001 26C23.0453 26 25.0742 25.9895 25.3202 25.9314C26.2827 25.6994 27.1796 25.0139 27.6116 24.1807C28.0163 23.3844 27.9999 23.7377 27.9999 16.6661C27.9999 9.59451 28.0163 9.9531 27.6116 9.15154C27.2015 8.34472 26.403 7.71191 25.4296 7.42715C25.1617 7.34805 24.5984 7.33223 20.207 7.30586C15.2961 7.2795 15.2852 7.2795 15.0665 7.16348C14.9352 7.1002 14.2844 6.47794 13.4641 5.6342C11.9165 4.05746 11.6157 3.78852 11.0962 3.53539C10.347 3.16626 10.4618 3.1768 6.69935 3.16098C4.83453 3.15571 3.16111 3.17153 2.98064 3.19262ZM10.0681 5.30725C10.2868 5.40217 10.5821 5.67111 11.7962 6.90508C13.3821 8.51874 13.6446 8.75077 14.1368 8.9828C14.9133 9.35721 14.5415 9.33084 20.0156 9.36248C24.5601 9.38885 24.9812 9.39412 25.1343 9.47849C25.3859 9.61033 25.6484 9.88455 25.7632 10.1271C25.8616 10.3275 25.8671 10.6492 25.8671 16.6661C25.8671 22.683 25.8616 23.0047 25.7632 23.2051C25.6429 23.4582 25.3804 23.7166 25.107 23.8485C24.921 23.9381 24.3906 23.9434 14.0001 23.9434C3.60954 23.9434 3.07908 23.9381 2.89314 23.8485C2.61971 23.7166 2.35721 23.4582 2.2369 23.2051C2.13846 23.0047 2.13299 22.6145 2.13299 14.5831C2.13299 6.39357 2.13846 6.16681 2.24237 5.96115C2.29705 5.84513 2.37908 5.7133 2.41737 5.67111C2.53768 5.53401 2.86033 5.3178 3.03533 5.25979C3.1447 5.22288 4.34781 5.20178 6.49701 5.20178C9.73994 5.19651 9.8001 5.19651 10.0681 5.30725Z" fill="#0A113D" fill-opacity="0.48"/>
</g>
</g>
</svg>
