<svg width="20" height="20" viewBox="0 0 20 20" fill="none" xmlns="http://www.w3.org/2000/svg">
<g id="picture 1" clip-path="url(#clip0_131_2922)">
<g id="Group">
<path id="Vector" d="M4.13628 0.800781C2.69878 1.06641 1.48003 2.09375 0.991745 3.45703C0.730026 4.19531 0.737839 3.91016 0.749558 10.1602C0.761276 15.7969 0.761276 15.8008 0.847214 16.0938C0.995651 16.6211 1.16753 17.0117 1.41362 17.3867C1.99175 18.2656 2.8394 18.8672 3.91362 19.1523L4.23784 19.2383H9.99956H15.7613L16.1089 19.1445C17.6441 18.7422 18.7378 17.6406 19.1519 16.0859L19.2378 15.7617V10V4.23828L19.1519 3.91406C18.7378 2.36719 17.6714 1.28516 16.1324 0.855469L15.8003 0.761719L10.1167 0.753906C5.40581 0.75 4.38237 0.757812 4.13628 0.800781ZM15.9292 2.02344C16.9566 2.33984 17.6753 3.07422 17.9917 4.12109C18.0582 4.33984 18.0621 4.63672 18.0738 8.22266L18.0894 12.0898L17.2574 11.2656C16.8003 10.8125 16.3042 10.3516 16.1519 10.2383C15.7808 9.95703 15.1011 9.63281 14.6285 9.50391C14.2691 9.41016 14.1753 9.39844 13.5152 9.39844C12.855 9.39844 12.7574 9.41016 12.4097 9.50391C11.9449 9.62891 11.3355 9.91406 10.9449 10.1914C10.7886 10.3008 10.3746 10.6719 10.0269 11.0156L9.39018 11.6367L7.74956 9.99609C6.85112 9.08984 6.01909 8.28125 5.9019 8.19531C5.60112 7.96875 5.09721 7.71875 4.71831 7.61328C4.43315 7.53125 4.31596 7.51953 3.73003 7.52344C3.12456 7.52344 3.03471 7.53516 2.72221 7.62891C2.53471 7.6875 2.273 7.78906 2.14409 7.85547L1.90971 7.97266L1.92143 6.16406C1.93706 4.42969 1.94096 4.34375 2.023 4.07031C2.37065 2.92969 3.31596 2.10547 4.47221 1.94141C4.53862 1.93359 7.07768 1.92578 10.1167 1.92969L15.6441 1.93359L15.9292 2.02344ZM4.49174 8.78516C5.03471 8.95703 5.14409 9.05078 6.91362 10.8086L8.57378 12.4609L5.96831 15.0664L3.36284 17.6719L3.19878 17.5586C2.6519 17.1992 2.21831 16.5859 2.00737 15.8789C1.94096 15.6641 1.93706 15.3867 1.92534 12.5547L1.90971 9.46094L2.13237 9.26562C2.398 9.02734 2.82768 8.80859 3.17143 8.73047C3.51518 8.65234 4.16362 8.67578 4.49174 8.78516ZM14.1011 10.6016C14.48 10.6719 14.9527 10.8555 15.273 11.0625C15.4371 11.168 15.9722 11.668 16.8082 12.4961L18.0933 13.7695L18.0738 14.707C18.0542 15.7188 18.0308 15.875 17.8121 16.3555C17.4566 17.1328 16.7886 17.7109 15.9292 17.9766L15.6441 18.0664L10.1675 18.0781C7.1519 18.082 4.68706 18.0742 4.68706 18.0547C4.68706 18.0391 6.22221 16.4961 8.09721 14.625C11.0152 11.7109 11.5464 11.1953 11.8082 11.0352C12.4917 10.6172 13.316 10.4609 14.1011 10.6016Z" fill="#1076FC"/>
<path id="Vector_2" d="M9.72567 2.71875C9.58505 2.74609 9.3038 2.85547 9.10067 2.95313C8.45223 3.27734 7.92489 3.90234 7.71786 4.60938C7.61239 4.95703 7.59676 5.47656 7.67098 5.85938C8.09676 7.98828 10.7061 8.76953 12.2257 7.22656C12.5304 6.91406 12.7374 6.57422 12.878 6.15234C12.9679 5.88281 12.9796 5.77344 12.9796 5.35156C12.9796 4.93359 12.9679 4.82031 12.8819 4.5625C12.7335 4.10938 12.5225 3.76563 12.1866 3.43359C11.6866 2.92969 11.0069 2.65625 10.2921 2.66016C10.1202 2.66016 9.8663 2.6875 9.72567 2.71875ZM10.8663 3.94531C11.4835 4.17578 11.9171 4.93359 11.796 5.57813C11.6436 6.41406 10.8897 6.96484 10.0694 6.83203C9.56942 6.75 9.15926 6.42969 8.9327 5.94531C8.82723 5.71484 8.81161 5.64453 8.81161 5.35156C8.81161 5.10156 8.83505 4.96484 8.90145 4.79688C9.00301 4.53906 9.3038 4.18359 9.54598 4.04297C9.9288 3.81641 10.4288 3.78125 10.8663 3.94531Z" fill="#1076FC"/>
</g>
</g>
<defs>
<clipPath id="clip0_131_2922">
<rect width="20" height="20" fill="white"/>
</clipPath>
</defs>
</svg>
