<svg width="24" height="24" viewBox="0 0 24 24" fill="none" xmlns="http://www.w3.org/2000/svg">
<g id="play 1">
<g id="Group">
<path id="Vector" d="M7.19531 2.76583C6.4875 2.87833 5.78438 3.17365 5.22188 3.60021C4.24219 4.34083 3.64688 5.42833 3.36094 7.00802C3.25781 7.56114 3.25781 7.65021 3.25781 11.9533C3.25781 15.933 3.26719 16.383 3.34219 16.8658C3.7125 19.2096 4.93125 20.6908 6.88125 21.1736C7.35469 21.2908 8.36719 21.2768 9 21.1455C9.89063 20.958 10.5984 20.6721 11.5406 20.119C11.7516 19.9924 13.2375 19.1346 14.8359 18.2111C16.4344 17.2877 17.9203 16.4111 18.1406 16.2611C19.4297 15.3752 20.2969 14.2455 20.6109 13.0361C20.775 12.3986 20.775 11.6018 20.6109 10.9643C20.3906 10.1158 19.9266 9.34708 19.2094 8.63458C18.7078 8.13771 18.3703 7.87052 17.8125 7.52833C17.0531 7.0549 11.2734 3.73146 10.7906 3.48771C10.2563 3.22052 9.50156 2.95333 8.92969 2.83615C8.47969 2.7424 7.58438 2.70958 7.19531 2.76583ZM8.4375 4.28458C8.91094 4.35958 9.48281 4.52365 9.9 4.70646C10.2563 4.86583 17.0203 8.77989 17.3906 9.0424C18.7125 9.9799 19.4016 11.2315 19.2188 12.3658C19.0734 13.3033 18.4172 14.2315 17.3906 14.958C17.0578 15.1924 10.6453 18.9096 10.0828 19.1955C9.38906 19.5424 8.46094 19.7815 7.81406 19.7815C7.44375 19.7815 6.95625 19.6596 6.56719 19.4768C6.05156 19.2283 5.56406 18.7221 5.27813 18.1315C5.01563 17.5924 4.85156 16.9736 4.78594 16.2611C4.71563 15.544 4.71563 8.45646 4.78594 7.73927C4.85156 7.02677 5.01563 6.40802 5.27813 5.86896C5.67188 5.05802 6.39375 4.4674 7.21875 4.29396C7.61719 4.2049 7.89375 4.2049 8.4375 4.28458Z" fill="#1076FC"/>
</g>
</g>
</svg>
