<svg width="32" height="32" viewBox="0 0 32 32" fill="none" xmlns="http://www.w3.org/2000/svg">
<path d="M5.05263 2.6665H26.9474C28.2874 2.6665 29.5726 3.18709 30.5201 4.11374C31.4677 5.04039 32 6.2972 32 7.60768V19.1371C32 20.4476 31.4677 21.7044 30.5201 22.631C29.5726 23.5577 28.2874 24.0783 26.9474 24.0783H19.3684L20.2105 29.0194H21.8947V30.6665H10.1053V29.0194H11.7895L12.6316 24.0783H5.05263C3.71259 24.0783 2.42743 23.5577 1.47988 22.631C0.532329 21.7044 0 20.4476 0 19.1371V7.60768C0 6.2972 0.532329 5.04039 1.47988 4.11374C2.42743 3.18709 3.71259 2.6665 5.05263 2.6665ZM14.3158 24.0783L13.4737 29.0194H18.5263L17.6842 24.0783H14.3158ZM5.05263 4.31356C4.15927 4.31356 3.3025 4.66062 2.6708 5.27839C2.0391 5.89615 1.68421 6.73403 1.68421 7.60768V19.1371C1.68421 20.0107 2.0391 20.8486 2.6708 21.4664C3.3025 22.0842 4.15927 22.4312 5.05263 22.4312H26.9474C27.8407 22.4312 28.6975 22.0842 29.3292 21.4664C29.9609 20.8486 30.3158 20.0107 30.3158 19.1371V7.60768C30.3158 6.73403 29.9609 5.89615 29.3292 5.27839C28.6975 4.66062 27.8407 4.31356 26.9474 4.31356H5.05263Z" fill="#1076FC"/>
<g clip-path="url(#clip0_2668_4090)">
<path d="M4.66647 13.0294C4.352 13.1168 4.09375 13.3897 4.02294 13.7083C4.00628 13.7916 4.00003 14.1082 4.00628 14.8433C4.01253 15.8596 4.01253 15.8638 4.06251 15.9846C4.15415 16.2158 4.36033 16.4157 4.59983 16.5052C4.71645 16.549 4.75186 16.5511 5.68695 16.5573C6.26384 16.5615 6.70744 16.5552 6.78657 16.5427C7.17811 16.4823 7.48009 16.1866 7.54256 15.7992C7.57172 15.6264 7.56964 13.8936 7.54048 13.7374C7.47592 13.3897 7.22809 13.121 6.88654 13.0314C6.78241 13.0064 6.59914 13.0002 5.76193 13.0023C5.0226 13.0044 4.73728 13.0106 4.66647 13.0294ZM6.66787 14.7808V15.6659H5.78275H4.89764V14.7808V13.8957H5.78275H6.66787V14.7808Z" fill="#1076FC"/>
<path d="M9.11217 13.0314C8.94347 13.0773 8.83726 13.1397 8.71022 13.2689C8.57693 13.4001 8.49571 13.5563 8.46239 13.7374C8.43323 13.8936 8.43115 15.6264 8.46031 15.7992C8.52279 16.1866 8.82476 16.4823 9.2163 16.5427C9.29544 16.5552 9.73903 16.5615 10.3159 16.5573C11.251 16.5511 11.2864 16.549 11.403 16.5052C11.6425 16.4157 11.8487 16.2158 11.9404 15.9846C11.9903 15.8638 11.9903 15.8596 11.9966 14.8537C12.0008 14.1498 11.9966 13.8062 11.9799 13.7187C11.9154 13.3917 11.655 13.1168 11.326 13.0294C11.1698 12.9877 9.26836 12.9898 9.11217 13.0314ZM11.1052 14.7808V15.6659H10.2201H9.33501V14.7808V13.8957H10.2201H11.1052V14.7808Z" fill="#1076FC"/>
<path d="M4.71071 17.4653C4.53785 17.5027 4.4004 17.5777 4.27128 17.7068C4.14007 17.8381 4.07968 17.9401 4.03386 18.1171C3.99013 18.2816 3.98804 20.1602 4.03178 20.3205C4.11508 20.635 4.365 20.8849 4.67739 20.9682C4.84192 21.012 6.71627 21.0099 6.88704 20.9661C7.22859 20.8766 7.47642 20.6079 7.54099 20.2601C7.57014 20.1039 7.57223 18.3712 7.54307 18.1983C7.48059 17.8172 7.18278 17.5194 6.80166 17.4569C6.62047 17.4257 4.85233 17.434 4.71071 17.4653ZM6.66837 19.2167V20.1019H5.78326H4.89815V19.2167V18.3316H5.78326H6.66837V19.2167Z" fill="#1076FC"/>
<path d="M8.75226 17.4673C8.62522 17.5068 8.50651 17.6297 8.46694 17.7588C8.40446 17.9713 8.49401 18.1795 8.68978 18.2774L8.80016 18.3315H9.33331H9.86646L9.97684 18.2774C10.1643 18.1837 10.2559 17.9858 10.2059 17.7817C10.1726 17.6422 10.0289 17.4943 9.89145 17.461C9.74983 17.4256 8.87305 17.4298 8.75226 17.4673Z" fill="#1076FC"/>
<path d="M11.0041 17.4549C10.8271 17.5007 10.6667 17.6986 10.6667 17.8714C10.6667 18.0818 10.8042 18.263 10.9958 18.3129L11.1041 18.34V18.5545V18.769H10.6542C10.3939 18.769 10.1669 18.7794 10.1148 18.7919C10.0586 18.8065 9.98362 18.8502 9.92739 18.8981C9.69413 19.1022 9.74412 19.4709 10.0232 19.6104L10.1336 19.6646H10.8708C11.7018 19.6646 11.7351 19.6604 11.8642 19.5292C11.9954 19.4001 11.9996 19.3667 11.9996 18.5337V17.7944L11.9413 17.684C11.8996 17.6028 11.8559 17.5549 11.7809 17.509C11.683 17.4486 11.6747 17.4466 11.3769 17.4424C11.2103 17.4403 11.0416 17.4466 11.0041 17.4549Z" fill="#1076FC"/>
<path d="M8.76863 18.7942C8.72489 18.8046 8.64784 18.8525 8.59577 18.8983C8.44166 19.0337 8.43541 19.0753 8.44374 19.9417L8.44999 20.6789L8.51247 20.7789C8.55828 20.8539 8.60618 20.8976 8.68741 20.9392L8.79779 20.9976H9.33302H9.86825L9.97863 20.9434C10.2431 20.8101 10.3014 20.4873 10.1015 20.2603C9.99321 20.1354 9.88283 20.102 9.57044 20.102H9.3351V19.6147V19.1274L9.27679 19.017C9.18099 18.8316 8.96648 18.7379 8.76863 18.7942Z" fill="#1076FC"/>
<path d="M11.0045 20.1208C10.8837 20.152 10.7796 20.2374 10.7213 20.354C10.6296 20.5394 10.6567 20.7185 10.7983 20.8601C10.9149 20.9746 11.0003 20.9976 11.3336 20.9976C11.6647 20.9976 11.7522 20.9746 11.8667 20.8622C12.0708 20.6581 12.0271 20.3186 11.7751 20.1708C11.6813 20.1145 11.6647 20.1124 11.3752 20.1083C11.2086 20.1062 11.042 20.1124 11.0045 20.1208Z" fill="#1076FC"/>
</g>
<defs>
<clipPath id="clip0_2668_4090">
<rect width="8" height="8" fill="white" transform="translate(4 13)"/>
</clipPath>
</defs>
</svg>
