<svg width="32" height="32" viewBox="0 0 32 32" fill="none" xmlns="http://www.w3.org/2000/svg">
<path opacity="0.48" d="M5.05263 2.6665H26.9474C28.2874 2.6665 29.5726 3.18709 30.5201 4.11374C31.4677 5.04039 32 6.2972 32 7.60768V19.1371C32 20.4476 31.4677 21.7044 30.5201 22.631C29.5726 23.5577 28.2874 24.0783 26.9474 24.0783H19.3684L20.2105 29.0194H21.8947V30.6665H10.1053V29.0194H11.7895L12.6316 24.0783H5.05263C3.71259 24.0783 2.42743 23.5577 1.47988 22.631C0.532329 21.7044 0 20.4476 0 19.1371V7.60768C0 6.2972 0.532329 5.04039 1.47988 4.11374C2.42743 3.18709 3.71259 2.6665 5.05263 2.6665ZM14.3158 24.0783L13.4737 29.0194H18.5263L17.6842 24.0783H14.3158ZM5.05263 4.31356C4.15927 4.31356 3.3025 4.66062 2.6708 5.27839C2.0391 5.89615 1.68421 6.73403 1.68421 7.60768V19.1371C1.68421 20.0107 2.0391 20.8486 2.6708 21.4664C3.3025 22.0842 4.15927 22.4312 5.05263 22.4312H26.9474C27.8407 22.4312 28.6975 22.0842 29.3292 21.4664C29.9609 20.8486 30.3158 20.0107 30.3158 19.1371V7.60768C30.3158 6.73403 29.9609 5.89615 29.3292 5.27839C28.6975 4.66062 27.8407 4.31356 26.9474 4.31356H5.05263Z" fill="#0A113D"/>
<g opacity="0.48" clip-path="url(#clip0_2636_3355)">
<path d="M20.6665 13.0294C20.352 13.1168 20.0938 13.3897 20.0229 13.7083C20.0063 13.7916 20 14.1082 20.0063 14.8433C20.0125 15.8596 20.0125 15.8638 20.0625 15.9846C20.1541 16.2158 20.3603 16.4157 20.5998 16.5052C20.7165 16.549 20.7519 16.5511 21.687 16.5573C22.2638 16.5615 22.7074 16.5552 22.7866 16.5427C23.1781 16.4823 23.4801 16.1866 23.5426 15.7992C23.5717 15.6264 23.5696 13.8936 23.5405 13.7374C23.4759 13.3897 23.2281 13.121 22.8865 13.0314C22.7824 13.0064 22.5991 13.0002 21.7619 13.0023C21.0226 13.0044 20.7373 13.0106 20.6665 13.0294ZM22.6679 14.7808V15.6659H21.7828H20.8976V14.7808V13.8957H21.7828H22.6679V14.7808Z" fill="#0A113D"/>
<path d="M25.1122 13.0314C24.9435 13.0773 24.8373 13.1397 24.7102 13.2689C24.5769 13.4001 24.4957 13.5563 24.4624 13.7374C24.4332 13.8936 24.4312 15.6264 24.4603 15.7992C24.5228 16.1866 24.8248 16.4823 25.2163 16.5427C25.2954 16.5552 25.739 16.5615 26.3159 16.5573C27.251 16.5511 27.2864 16.549 27.403 16.5052C27.6425 16.4157 27.8487 16.2158 27.9404 15.9846C27.9903 15.8638 27.9903 15.8596 27.9966 14.8537C28.0008 14.1498 27.9966 13.8062 27.9799 13.7187C27.9154 13.3917 27.655 13.1168 27.326 13.0294C27.1698 12.9877 25.2684 12.9898 25.1122 13.0314ZM27.1052 14.7808V15.6659H26.2201H25.335V14.7808V13.8957H26.2201H27.1052V14.7808Z" fill="#0A113D"/>
<path d="M20.7107 17.4653C20.5379 17.5027 20.4004 17.5777 20.2713 17.7068C20.1401 17.8381 20.0797 17.9401 20.0339 18.1171C19.9901 18.2816 19.988 20.1602 20.0318 20.3205C20.1151 20.635 20.365 20.8849 20.6774 20.9682C20.8419 21.012 22.7163 21.0099 22.887 20.9661C23.2286 20.8766 23.4764 20.6079 23.541 20.2601C23.5701 20.1039 23.5722 18.3712 23.5431 18.1983C23.4806 17.8172 23.1828 17.5194 22.8017 17.4569C22.6205 17.4257 20.8523 17.434 20.7107 17.4653ZM22.6684 19.2167V20.1019H21.7833H20.8981V19.2167V18.3316H21.7833H22.6684V19.2167Z" fill="#0A113D"/>
<path d="M24.7523 17.4673C24.6252 17.5068 24.5065 17.6297 24.4669 17.7588C24.4045 17.9713 24.494 18.1795 24.6898 18.2774L24.8002 18.3315H25.3333H25.8665L25.9768 18.2774C26.1643 18.1837 26.2559 17.9858 26.2059 17.7817C26.1726 17.6422 26.0289 17.4943 25.8914 17.461C25.7498 17.4256 24.873 17.4298 24.7523 17.4673Z" fill="#0A113D"/>
<path d="M27.0041 17.4549C26.8271 17.5007 26.6667 17.6986 26.6667 17.8714C26.6667 18.0818 26.8042 18.263 26.9958 18.3129L27.1041 18.34V18.5545V18.769H26.6542C26.3939 18.769 26.1669 18.7794 26.1148 18.7919C26.0586 18.8065 25.9836 18.8502 25.9274 18.8981C25.6941 19.1022 25.7441 19.4709 26.0232 19.6104L26.1336 19.6646H26.8708C27.7018 19.6646 27.7351 19.6604 27.8642 19.5292C27.9954 19.4001 27.9996 19.3667 27.9996 18.5337V17.7944L27.9413 17.684C27.8996 17.6028 27.8559 17.5549 27.7809 17.509C27.683 17.4486 27.6747 17.4466 27.3769 17.4424C27.2103 17.4403 27.0416 17.4466 27.0041 17.4549Z" fill="#0A113D"/>
<path d="M24.7686 18.7942C24.7249 18.8046 24.6478 18.8525 24.5958 18.8983C24.4417 19.0337 24.4354 19.0753 24.4437 19.9417L24.45 20.6789L24.5125 20.7789C24.5583 20.8539 24.6062 20.8976 24.6874 20.9392L24.7978 20.9976H25.333H25.8682L25.9786 20.9434C26.2431 20.8101 26.3014 20.4873 26.1015 20.2603C25.9932 20.1354 25.8828 20.102 25.5704 20.102H25.3351V19.6147V19.1274L25.2768 19.017C25.181 18.8316 24.9665 18.7379 24.7686 18.7942Z" fill="#0A113D"/>
<path d="M27.0045 20.1208C26.8837 20.152 26.7796 20.2374 26.7213 20.354C26.6296 20.5394 26.6567 20.7185 26.7983 20.8601C26.9149 20.9746 27.0003 20.9976 27.3336 20.9976C27.6647 20.9976 27.7522 20.9746 27.8667 20.8622C28.0708 20.6581 28.0271 20.3186 27.7751 20.1708C27.6813 20.1145 27.6647 20.1124 27.3752 20.1083C27.2086 20.1062 27.042 20.1124 27.0045 20.1208Z" fill="#0A113D"/>
</g>
<defs>
<clipPath id="clip0_2636_3355">
<rect width="8" height="8" fill="white" transform="translate(20 13)"/>
</clipPath>
</defs>
</svg>
