<svg width="32" height="32" viewBox="0 0 32 32" fill="none" xmlns="http://www.w3.org/2000/svg">
<path opacity="0.48" d="M5.05263 2.6665H26.9474C28.2874 2.6665 29.5726 3.18709 30.5201 4.11374C31.4677 5.04039 32 6.2972 32 7.60768V19.1371C32 20.4476 31.4677 21.7044 30.5201 22.631C29.5726 23.5577 28.2874 24.0783 26.9474 24.0783H19.3684L20.2105 29.0194H21.8947V30.6665H10.1053V29.0194H11.7895L12.6316 24.0783H5.05263C3.71259 24.0783 2.42743 23.5577 1.47988 22.631C0.532329 21.7044 0 20.4476 0 19.1371V7.60768C0 6.2972 0.532329 5.04039 1.47988 4.11374C2.42743 3.18709 3.71259 2.6665 5.05263 2.6665ZM14.3158 24.0783L13.4737 29.0194H18.5263L17.6842 24.0783H14.3158ZM5.05263 4.31356C4.15927 4.31356 3.3025 4.66062 2.6708 5.27839C2.0391 5.89615 1.68421 6.73403 1.68421 7.60768V19.1371C1.68421 20.0107 2.0391 20.8486 2.6708 21.4664C3.3025 22.0842 4.15927 22.4312 5.05263 22.4312H26.9474C27.8407 22.4312 28.6975 22.0842 29.3292 21.4664C29.9609 20.8486 30.3158 20.0107 30.3158 19.1371V7.60768C30.3158 6.73403 29.9609 5.89615 29.3292 5.27839C28.6975 4.66062 27.8407 4.31356 26.9474 4.31356H5.05263Z" fill="#0A113D"/>
<g opacity="0.48" clip-path="url(#clip0_2665_3700)">
<path d="M4.66647 6.02936C4.352 6.11683 4.09375 6.38965 4.02294 6.70829C4.00628 6.7916 4.00003 7.10815 4.00628 7.84332C4.01253 8.85963 4.01253 8.8638 4.06251 8.98459C4.15415 9.21576 4.36033 9.41569 4.59983 9.50524C4.71645 9.54898 4.75186 9.55106 5.68695 9.55731C6.26384 9.56147 6.70744 9.55523 6.78657 9.54273C7.17811 9.48233 7.48009 9.1866 7.54256 8.79924C7.57172 8.62638 7.56964 6.89364 7.54048 6.73745C7.47592 6.38965 7.22809 6.12099 6.88654 6.03144C6.78241 6.00645 6.59914 6.0002 5.76193 6.00228C5.0226 6.00437 4.73728 6.01061 4.66647 6.02936ZM6.66787 7.78084V8.66595H5.78275H4.89764V7.78084V6.89573H5.78275H6.66787V7.78084Z" fill="#0A113D"/>
<path d="M9.11217 6.03144C8.94347 6.07726 8.83726 6.13974 8.71022 6.26886C8.57693 6.40006 8.49571 6.55626 8.46239 6.73745C8.43323 6.89364 8.43115 8.62638 8.46031 8.79924C8.52279 9.1866 8.82476 9.48233 9.2163 9.54273C9.29544 9.55523 9.73903 9.56147 10.3159 9.55731C11.251 9.55106 11.2864 9.54898 11.403 9.50524C11.6425 9.41569 11.8487 9.21576 11.9404 8.98459C11.9903 8.8638 11.9903 8.85963 11.9966 7.85373C12.0008 7.14981 11.9966 6.80617 11.9799 6.7187C11.9154 6.39173 11.655 6.11683 11.326 6.02936C11.1698 5.98771 9.26836 5.98979 9.11217 6.03144ZM11.1052 7.78084V8.66595H10.2201H9.33501V7.78084V6.89573H10.2201H11.1052V7.78084Z" fill="#0A113D"/>
<path d="M4.71071 10.4653C4.53785 10.5027 4.4004 10.5777 4.27128 10.7068C4.14007 10.8381 4.07968 10.9401 4.03386 11.1171C3.99013 11.2816 3.98804 13.1602 4.03178 13.3205C4.11508 13.635 4.365 13.8849 4.67739 13.9682C4.84192 14.012 6.71627 14.0099 6.88704 13.9661C7.22859 13.8766 7.47642 13.6079 7.54099 13.2601C7.57014 13.1039 7.57223 11.3712 7.54307 11.1983C7.48059 10.8172 7.18278 10.5194 6.80166 10.4569C6.62047 10.4257 4.85233 10.434 4.71071 10.4653ZM6.66837 12.2167V13.1019H5.78326H4.89815V12.2167V11.3316H5.78326H6.66837V12.2167Z" fill="#0A113D"/>
<path d="M8.75226 10.4673C8.62522 10.5068 8.50651 10.6297 8.46694 10.7588C8.40446 10.9713 8.49401 11.1795 8.68978 11.2774L8.80016 11.3315H9.33331H9.86646L9.97684 11.2774C10.1643 11.1837 10.2559 10.9858 10.2059 10.7817C10.1726 10.6422 10.0289 10.4943 9.89145 10.461C9.74983 10.4256 8.87305 10.4298 8.75226 10.4673Z" fill="#0A113D"/>
<path d="M11.0041 10.4549C10.8271 10.5007 10.6667 10.6986 10.6667 10.8714C10.6667 11.0818 10.8042 11.263 10.9958 11.3129L11.1041 11.34V11.5545V11.769H10.6542C10.3939 11.769 10.1669 11.7794 10.1148 11.7919C10.0586 11.8065 9.98362 11.8502 9.92739 11.8981C9.69413 12.1022 9.74412 12.4709 10.0232 12.6104L10.1336 12.6646H10.8708C11.7018 12.6646 11.7351 12.6604 11.8642 12.5292C11.9954 12.4001 11.9996 12.3667 11.9996 11.5337V10.7944L11.9413 10.684C11.8996 10.6028 11.8559 10.5549 11.7809 10.509C11.683 10.4486 11.6747 10.4466 11.3769 10.4424C11.2103 10.4403 11.0416 10.4466 11.0041 10.4549Z" fill="#0A113D"/>
<path d="M8.76863 11.7942C8.72489 11.8046 8.64784 11.8525 8.59577 11.8983C8.44166 12.0337 8.43541 12.0753 8.44374 12.9417L8.44999 13.6789L8.51247 13.7789C8.55828 13.8539 8.60618 13.8976 8.68741 13.9392L8.79779 13.9976H9.33302H9.86825L9.97863 13.9434C10.2431 13.8101 10.3014 13.4873 10.1015 13.2603C9.99321 13.1354 9.88283 13.102 9.57044 13.102H9.3351V12.6147V12.1274L9.27679 12.017C9.18099 11.8316 8.96648 11.7379 8.76863 11.7942Z" fill="#0A113D"/>
<path d="M11.0045 13.1208C10.8837 13.152 10.7796 13.2374 10.7213 13.354C10.6296 13.5394 10.6567 13.7185 10.7983 13.8601C10.9149 13.9746 11.0003 13.9976 11.3336 13.9976C11.6647 13.9976 11.7522 13.9746 11.8667 13.8622C12.0708 13.6581 12.0271 13.3186 11.7751 13.1708C11.6813 13.1145 11.6647 13.1124 11.3752 13.1083C11.2086 13.1062 11.042 13.1124 11.0045 13.1208Z" fill="#0A113D"/>
</g>
<defs>
<clipPath id="clip0_2665_3700">
<rect width="8" height="8" fill="white" transform="translate(4 6)"/>
</clipPath>
</defs>
</svg>
