<svg width="32" height="32" viewBox="0 0 32 32" fill="none" xmlns="http://www.w3.org/2000/svg">
<path opacity="0.48" d="M5.05263 2.6665H26.9474C28.2874 2.6665 29.5726 3.18709 30.5201 4.11374C31.4677 5.04039 32 6.2972 32 7.60768V19.1371C32 20.4476 31.4677 21.7044 30.5201 22.631C29.5726 23.5577 28.2874 24.0783 26.9474 24.0783H19.3684L20.2105 29.0194H21.8947V30.6665H10.1053V29.0194H11.7895L12.6316 24.0783H5.05263C3.71259 24.0783 2.42743 23.5577 1.47988 22.631C0.532329 21.7044 0 20.4476 0 19.1371V7.60768C0 6.2972 0.532329 5.04039 1.47988 4.11374C2.42743 3.18709 3.71259 2.6665 5.05263 2.6665ZM14.3158 24.0783L13.4737 29.0194H18.5263L17.6842 24.0783H14.3158ZM5.05263 4.31356C4.15927 4.31356 3.3025 4.66062 2.6708 5.27839C2.0391 5.89615 1.68421 6.73403 1.68421 7.60768V19.1371C1.68421 20.0107 2.0391 20.8486 2.6708 21.4664C3.3025 22.0842 4.15927 22.4312 5.05263 22.4312H26.9474C27.8407 22.4312 28.6975 22.0842 29.3292 21.4664C29.9609 20.8486 30.3158 20.0107 30.3158 19.1371V7.60768C30.3158 6.73403 29.9609 5.89615 29.3292 5.27839C28.6975 4.66062 27.8407 4.31356 26.9474 4.31356H5.05263Z" fill="#0A113D"/>
<g opacity="0.48" clip-path="url(#clip0_2636_2772)">
<path d="M20.6665 6.02936C20.352 6.11683 20.0938 6.38965 20.0229 6.70829C20.0063 6.79159 20 7.10815 20.0063 7.84332C20.0125 8.85963 20.0125 8.8638 20.0625 8.98459C20.1541 9.21576 20.3603 9.41569 20.5998 9.50524C20.7165 9.54898 20.7519 9.55106 21.687 9.55731C22.2638 9.56147 22.7074 9.55523 22.7866 9.54273C23.1781 9.48233 23.4801 9.1866 23.5426 8.79924C23.5717 8.62638 23.5696 6.89364 23.5405 6.73745C23.4759 6.38965 23.2281 6.12099 22.8865 6.03144C22.7824 6.00645 22.5991 6.0002 21.7619 6.00228C21.0226 6.00437 20.7373 6.01061 20.6665 6.02936ZM22.6679 7.78084V8.66595H21.7828H20.8976V7.78084V6.89573H21.7828H22.6679V7.78084Z" fill="#0A113D"/>
<path d="M25.1122 6.03144C24.9435 6.07726 24.8373 6.13974 24.7102 6.26886C24.5769 6.40006 24.4957 6.55626 24.4624 6.73745C24.4332 6.89364 24.4312 8.62638 24.4603 8.79924C24.5228 9.1866 24.8248 9.48233 25.2163 9.54273C25.2954 9.55523 25.739 9.56147 26.3159 9.55731C27.251 9.55106 27.2864 9.54898 27.403 9.50524C27.6425 9.41569 27.8487 9.21576 27.9404 8.98459C27.9903 8.8638 27.9903 8.85963 27.9966 7.85373C28.0008 7.14981 27.9966 6.80617 27.9799 6.7187C27.9154 6.39173 27.655 6.11683 27.326 6.02936C27.1698 5.98771 25.2684 5.98979 25.1122 6.03144ZM27.1052 7.78084V8.66595H26.2201H25.335V7.78084V6.89573H26.2201H27.1052V7.78084Z" fill="#0A113D"/>
<path d="M20.7107 10.4653C20.5379 10.5027 20.4004 10.5777 20.2713 10.7068C20.1401 10.8381 20.0797 10.9401 20.0339 11.1171C19.9901 11.2816 19.988 13.1602 20.0318 13.3205C20.1151 13.635 20.365 13.8849 20.6774 13.9682C20.8419 14.012 22.7163 14.0099 22.887 13.9661C23.2286 13.8766 23.4764 13.6079 23.541 13.2601C23.5701 13.1039 23.5722 11.3712 23.5431 11.1983C23.4806 10.8172 23.1828 10.5194 22.8017 10.4569C22.6205 10.4257 20.8523 10.434 20.7107 10.4653ZM22.6684 12.2167V13.1019H21.7833H20.8981V12.2167V11.3316H21.7833H22.6684V12.2167Z" fill="#0A113D"/>
<path d="M24.7523 10.4673C24.6252 10.5068 24.5065 10.6297 24.4669 10.7588C24.4045 10.9713 24.494 11.1795 24.6898 11.2774L24.8002 11.3315H25.3333H25.8665L25.9768 11.2774C26.1643 11.1837 26.2559 10.9858 26.2059 10.7817C26.1726 10.6422 26.0289 10.4943 25.8914 10.461C25.7498 10.4256 24.873 10.4298 24.7523 10.4673Z" fill="#0A113D"/>
<path d="M27.0041 10.4549C26.8271 10.5007 26.6667 10.6986 26.6667 10.8714C26.6667 11.0818 26.8042 11.263 26.9958 11.3129L27.1041 11.34V11.5545V11.769H26.6542C26.3939 11.769 26.1669 11.7794 26.1148 11.7919C26.0586 11.8065 25.9836 11.8502 25.9274 11.8981C25.6941 12.1022 25.7441 12.4709 26.0232 12.6104L26.1336 12.6646H26.8708C27.7018 12.6646 27.7351 12.6604 27.8642 12.5292C27.9954 12.4001 27.9996 12.3667 27.9996 11.5337V10.7944L27.9413 10.684C27.8996 10.6028 27.8559 10.5549 27.7809 10.509C27.683 10.4486 27.6747 10.4466 27.3769 10.4424C27.2103 10.4403 27.0416 10.4466 27.0041 10.4549Z" fill="#0A113D"/>
<path d="M24.7686 11.7942C24.7249 11.8046 24.6478 11.8525 24.5958 11.8983C24.4417 12.0337 24.4354 12.0753 24.4437 12.9417L24.45 13.6789L24.5125 13.7789C24.5583 13.8539 24.6062 13.8976 24.6874 13.9392L24.7978 13.9976H25.333H25.8682L25.9786 13.9434C26.2431 13.8101 26.3014 13.4873 26.1015 13.2603C25.9932 13.1354 25.8828 13.102 25.5704 13.102H25.3351V12.6147V12.1274L25.2768 12.017C25.181 11.8316 24.9665 11.7379 24.7686 11.7942Z" fill="#0A113D"/>
<path d="M27.0045 13.1208C26.8837 13.152 26.7796 13.2374 26.7213 13.354C26.6296 13.5394 26.6567 13.7185 26.7983 13.8601C26.9149 13.9746 27.0003 13.9976 27.3336 13.9976C27.6647 13.9976 27.7522 13.9746 27.8667 13.8622C28.0708 13.6581 28.0271 13.3186 27.7751 13.1708C27.6813 13.1145 27.6647 13.1124 27.3752 13.1083C27.2086 13.1062 27.042 13.1124 27.0045 13.1208Z" fill="#0A113D"/>
</g>
<defs>
<clipPath id="clip0_2636_2772">
<rect width="8" height="8" fill="white" transform="translate(20 6)"/>
</clipPath>
</defs>
</svg>
