<svg width="25" height="24" viewBox="0 0 25 24" fill="none" xmlns="http://www.w3.org/2000/svg">
<g id="rotate (1) 1">
<g id="Group">
<path id="Vector" d="M9.9365 1.46237C9.61258 1.64987 9.46705 2.11393 9.63605 2.43737C9.6736 2.51237 9.78158 2.63424 9.88016 2.70456L10.0492 2.83581L11.3918 2.84987L12.7297 2.86393L7.91316 7.678C4.83355 10.7577 3.05902 12.5717 2.97921 12.7077C2.91349 12.8249 2.80082 13.0921 2.7304 13.2936C2.62242 13.6264 2.60834 13.7108 2.62712 14.203C2.65059 14.803 2.7257 15.0889 2.99799 15.5436C3.20924 15.9092 6.1621 18.8952 6.44377 19.0311C6.69258 19.153 6.81933 19.1483 7.07753 19.0171C7.4484 18.8342 7.59393 18.4452 7.4484 18.0608C7.42493 17.9905 6.69727 17.2217 5.83348 16.3592C4.74435 15.2624 4.24673 14.7327 4.19509 14.6061C4.08712 14.3483 4.09651 13.8561 4.21856 13.5936C4.28898 13.4296 5.36403 12.3327 9.03984 8.65768L13.7672 3.93737L13.7907 5.26393L13.8142 6.59518L13.9456 6.76393C14.1099 6.98425 14.293 7.078 14.5418 7.078C14.7953 7.078 15.016 6.97487 15.1568 6.78268L15.2695 6.63268L15.2836 4.24675L15.2976 1.86081L15.1803 1.68737C14.9596 1.35456 15.0113 1.35925 12.4199 1.35925C10.1524 1.35925 10.1008 1.36393 9.9365 1.46237Z" fill="#1076FC"/>
<path id="Vector_2" d="M17.8278 4.92656C17.4475 5.07656 17.2551 5.54062 17.41 5.93906C17.4382 6.00937 18.1705 6.7875 19.0437 7.66406C20.776 9.40781 20.7384 9.35625 20.7384 9.92344C20.7384 10.125 20.7055 10.2656 20.621 10.4344C20.5318 10.6125 19.438 11.7328 15.7857 15.375L11.0677 20.0859V18.8203C11.0677 17.5969 11.063 17.5453 10.9644 17.3437C10.8048 17.0344 10.5935 16.9078 10.2649 16.9312C9.95977 16.9547 9.75321 17.0812 9.64054 17.3156C9.57482 17.4562 9.56543 17.7516 9.56543 19.8141V22.1484L9.6781 22.3172C9.90344 22.6453 9.8518 22.6406 12.4291 22.6406C14.6965 22.6406 14.7435 22.6406 14.9172 22.5422C15.274 22.3406 15.4054 21.8344 15.1895 21.5156C15.1284 21.4312 15.0205 21.3141 14.9501 21.2625C14.8233 21.1687 14.7529 21.1641 13.4713 21.15L12.1286 21.1359L16.9452 16.3219C21.729 11.5406 21.7618 11.5031 21.9496 11.1234C22.1937 10.6312 22.2547 10.3172 22.2313 9.73125C22.2078 9.20625 22.1139 8.87812 21.8557 8.44218C21.6491 8.09062 18.6869 5.1 18.4146 4.96875C18.2034 4.86562 18.0109 4.85625 17.8278 4.92656Z" fill="#1076FC"/>
</g>
</g>
</svg>
