<svg width="56" height="56" viewBox="0 0 56 56" fill="none" xmlns="http://www.w3.org/2000/svg">
<g id="scanner 1" clip-path="url(#clip0_2612_3059)">
<g id="Group">
<path id="Vector" d="M7.92986 0.601561C4.71423 1.30156 1.92517 3.80625 0.886108 6.94531C0.426733 8.32344 0.306421 9.94219 0.350171 13.8906C0.382983 17.325 0.426733 17.5328 1.09392 17.8828C1.76111 18.2219 2.58142 17.9922 2.92048 17.3578C3.09548 17.0406 3.1283 16.5484 3.17205 12.6875L3.22673 8.36719L3.58767 7.49219C4.28767 5.75312 5.72048 4.32031 7.48142 3.59844L8.36736 3.22656L12.6877 3.17187C16.5486 3.12812 17.0408 3.09531 17.358 2.92031C17.9924 2.58125 18.222 1.76094 17.883 1.09375C17.5439 0.448436 17.4892 0.437498 12.8299 0.448436C9.76736 0.448436 8.40017 0.492186 7.92986 0.601561Z" fill="#EFF0F8"/>
<path id="Vector_2" d="M38.5879 0.612403C37.7348 1.07178 37.7676 2.4499 38.6426 2.92022C38.9598 3.09522 39.452 3.12803 43.3129 3.17178L47.6332 3.22647L48.4754 3.56553C50.3785 4.34209 51.702 5.6874 52.4785 7.63428L52.7629 8.36709L52.8285 12.6874C52.8723 16.5483 52.9051 17.0405 53.0801 17.3577C53.5723 18.2655 54.9285 18.2655 55.4207 17.3577C55.5957 17.0405 55.6176 16.6249 55.6067 12.9062C55.6067 8.38897 55.5629 8.01709 54.9067 6.3874C53.7582 3.4999 51.0676 1.23584 48.0379 0.590528C46.9442 0.36084 39.0145 0.371778 38.5879 0.612403Z" fill="#EFF0F8"/>
<path id="Vector_3" d="M14 12.2172C13.3328 12.4578 12.4469 13.3547 12.2172 14.0438C12.0531 14.5141 12.0312 15.1375 12.0312 18.6484C12.0312 23.1984 12.0641 23.4609 12.7531 24.2594C12.9719 24.5219 13.3984 24.8609 13.7156 25.025L14.2734 25.3203H18.7031H23.1328L23.7125 24.9922C24.3578 24.6422 24.7078 24.2703 25.0797 23.5813C25.3203 23.1438 25.3203 23.0563 25.3203 18.7031V14.2734L25.025 13.7156C24.6422 12.9938 23.9531 12.4031 23.2531 12.1953C22.4328 11.9438 14.7109 11.9766 14 12.2172ZM22.575 14.9406C22.6078 15.0391 22.6406 16.7453 22.6406 18.7469C22.6406 21.4266 22.6078 22.4109 22.5094 22.5094C22.4109 22.6078 21.4266 22.6406 18.7469 22.6406C16.7453 22.6406 15.0391 22.6078 14.9406 22.575C14.7875 22.5203 14.7656 22.0719 14.7656 18.7141C14.7656 16.625 14.7984 14.875 14.8422 14.8422C14.875 14.7984 16.625 14.7656 18.7141 14.7656C22.0719 14.7656 22.5203 14.7875 22.575 14.9406Z" fill="#EFF0F8"/>
<path id="Vector_4" d="M32.7031 12.1953C32.0469 12.4031 31.3469 13.0156 30.975 13.7156L30.6797 14.2734V18.7031C30.6797 23.0562 30.6797 23.1437 30.9203 23.5812C31.2922 24.2703 31.6422 24.6422 32.2875 24.9922L32.8672 25.3203H37.2969H41.7266L42.2844 25.025C42.6016 24.8609 43.0281 24.5219 43.2469 24.2594C43.9359 23.4609 43.9687 23.1984 43.9687 18.6484C43.9687 13.9234 43.9578 13.8687 43.05 12.95C42.1312 12.0422 42.0875 12.0312 37.3078 12.0422C34.1141 12.0422 33.0859 12.0859 32.7031 12.1953ZM41.2125 18.6375C41.2344 21.6234 41.2016 22.4766 41.1031 22.5531C40.8625 22.6953 33.6437 22.6625 33.4906 22.5094C33.3922 22.4109 33.3594 21.4047 33.3594 18.6484C33.3594 16.5922 33.3922 14.875 33.4359 14.8422C33.4797 14.7984 35.2297 14.7766 37.3406 14.7875L41.1797 14.8203L41.2125 18.6375Z" fill="#EFF0F8"/>
<path id="Vector_5" d="M14.3828 30.7234C13.7812 30.8766 13.1578 31.2703 12.7531 31.7406C12.0641 32.5391 12.0312 32.8016 12.0312 37.3516C12.0312 42.0766 12.0422 42.1313 12.95 43.05C13.8687 43.9578 13.9234 43.9688 18.6484 43.9688C23.1984 43.9688 23.4609 43.9359 24.2594 43.2469C24.5219 43.0281 24.8609 42.6016 25.025 42.2844L25.3203 41.7266V37.2969V32.8672L24.9922 32.2875C24.6422 31.6422 24.2703 31.2922 23.5812 30.9203C23.1437 30.6906 23.0344 30.6797 18.9219 30.6578C16.6031 30.6469 14.5687 30.6797 14.3828 30.7234ZM22.5094 33.4906C22.6625 33.6438 22.6953 40.8625 22.5531 41.1031C22.4766 41.2016 21.6234 41.2344 18.6375 41.2125L14.8203 41.1797L14.7875 37.4063C14.7766 35.3281 14.7875 33.5672 14.8203 33.5016C14.8859 33.3047 22.3125 33.2938 22.5094 33.4906Z" fill="#EFF0F8"/>
<path id="Vector_6" d="M32.9549 30.7234C32.4299 30.8547 31.6424 31.3578 31.358 31.7516C30.6471 32.6922 30.6799 32.4406 30.6799 37.2969V41.7266L30.9752 42.2844C31.1393 42.6016 31.4784 43.0281 31.7409 43.2469C32.5393 43.9359 32.8018 43.9688 37.3518 43.9688C42.0768 43.9688 42.1315 43.9578 43.0502 43.05C43.958 42.1313 43.969 42.0766 43.969 37.3516C43.969 32.8016 43.9362 32.5391 43.2471 31.7406C43.0284 31.4781 42.6018 31.1391 42.2846 30.975L41.7268 30.6797L37.5159 30.6578C35.1971 30.6469 33.1518 30.6797 32.9549 30.7234ZM41.1799 37.2969V41.1797H37.2971H33.4143L33.3815 37.4172C33.3596 34.7156 33.3924 33.6109 33.4799 33.5125C33.5893 33.3813 34.2784 33.3594 37.3955 33.3813L41.1799 33.4141V37.2969Z" fill="#EFF0F8"/>
<path id="Vector_7" d="M1.0287 38.1607C0.405258 38.5436 0.383383 38.6967 0.394321 43.1482C0.405258 47.5998 0.438071 47.9936 1.08338 49.6014C2.2537 52.5107 4.8787 54.7201 8.0287 55.4311C8.66307 55.5732 9.57088 55.6061 12.9068 55.6061C16.6256 55.617 17.0412 55.5951 17.3584 55.4201C17.9928 55.0811 18.2224 54.2607 17.8834 53.5936C17.5662 52.9811 17.4787 52.9701 13.0162 52.9045C8.53182 52.8498 8.32401 52.8279 6.94588 52.1607C5.42557 51.417 4.1787 50.0389 3.53338 48.3982L3.23807 47.6326L3.17245 43.3123C3.1287 39.4514 3.09588 38.9592 2.92088 38.642C2.55995 37.9748 1.68495 37.7561 1.0287 38.1607Z" fill="#EFF0F8"/>
<path id="Vector_8" d="M53.5719 38.1279C52.9047 38.4889 52.8938 38.5764 52.8281 43.3123L52.7625 47.6326L52.4781 48.3545C51.7016 50.3123 50.2797 51.7451 48.3984 52.4451C47.3703 52.8389 46.1453 52.9373 42.2953 52.9373C38.5984 52.9373 38.4453 52.9592 38.1172 53.5936C37.7781 54.2607 38.0078 55.0811 38.6422 55.4201C38.9594 55.5951 39.375 55.617 43.0938 55.6061C46.4297 55.6061 47.3375 55.5732 47.9719 55.4311C51.1219 54.7201 53.7469 52.5107 54.9172 49.6014C55.5625 47.9826 55.6063 47.5998 55.6063 43.0936C55.6172 39.3748 55.5953 38.9592 55.4203 38.642C55.0813 38.0076 54.2172 37.767 53.5719 38.1279Z" fill="#EFF0F8"/>
</g>
</g>
<defs>
<clipPath id="clip0_2612_3059">
<rect width="56" height="56" fill="white"/>
</clipPath>
</defs>
</svg>
