<svg width="24" height="24" viewBox="0 0 24 24" fill="none" xmlns="http://www.w3.org/2000/svg">
<path d="M3.78947 2H20.2105C21.2156 2 22.1794 2.39044 22.8901 3.08543C23.6008 3.78042 24 4.72302 24 5.70588V14.3529C24 15.3358 23.6008 16.2784 22.8901 16.9734C22.1794 17.6684 21.2156 18.0588 20.2105 18.0588H14.5263L15.1579 21.7647H16.4211V23H7.57895V21.7647H8.8421L9.47368 18.0588H3.78947C2.78444 18.0588 1.82058 17.6684 1.10991 16.9734C0.399247 16.2784 0 15.3358 0 14.3529V5.70588C0 4.72302 0.399247 3.78042 1.10991 3.08543C1.82058 2.39044 2.78444 2 3.78947 2ZM10.7368 18.0588L10.1053 21.7647H13.8947L13.2632 18.0588H10.7368ZM3.78947 3.23529C3.11945 3.23529 2.47687 3.49559 2.0031 3.95891C1.52932 4.42224 1.26316 5.05064 1.26316 5.70588V14.3529C1.26316 15.0082 1.52932 15.6366 2.0031 16.0999C2.47687 16.5632 3.11945 16.8235 3.78947 16.8235H20.2105C20.8805 16.8235 21.5231 16.5632 21.9969 16.0999C22.4707 15.6366 22.7368 15.0082 22.7368 14.3529V5.70588C22.7368 5.05064 22.4707 4.42224 21.9969 3.95891C21.5231 3.49559 20.8805 3.23529 20.2105 3.23529H3.78947Z" fill="#0A113D"/>
</svg>
