<svg width="24" height="24" viewBox="0 0 24 24" fill="none" xmlns="http://www.w3.org/2000/svg">
<g clip-path="url(#clip0_265_3967)">
<path d="M5.48516 0.0749989C4.76328 0.267187 4.19609 0.881248 4.03672 1.63125C3.96172 1.98281 3.96172 19.0172 4.03672 19.3687C4.14922 19.9078 4.52422 20.4516 4.95547 20.7C5.44766 20.9906 5.53203 21 7.76797 21C9.38047 21 9.80234 21.0141 9.78828 21.0609C9.77422 21.0891 9.62422 21.5437 9.45078 22.0687L9.13203 23.0156H8.47578H7.81953L7.65547 23.1797C7.50547 23.3297 7.49141 23.3672 7.51484 23.5406C7.52891 23.6625 7.58516 23.7797 7.66016 23.8547L7.78203 23.9766H12.0008H16.2195L16.3414 23.8547C16.4164 23.7797 16.4727 23.6625 16.4867 23.5406C16.5102 23.3672 16.4961 23.3297 16.3461 23.1797L16.182 23.0156H15.5258H14.8695L14.5508 22.0687C14.3773 21.5437 14.2273 21.0891 14.2133 21.0562C14.1992 21.0141 14.6211 21 16.2336 21C18.4695 21 18.5539 20.9906 19.0461 20.7C19.4773 20.4516 19.8523 19.9078 19.9648 19.3687C20.0398 19.0172 20.0398 1.98281 19.9648 1.63125C19.8055 0.867188 19.2336 0.262499 18.493 0.0703125C18.0852 -0.032814 5.88359 -0.032814 5.48516 0.0749989ZM18.4695 1.125C18.582 1.19062 18.7414 1.33594 18.8211 1.44375L18.9617 1.65V10.5V19.35L18.8211 19.5562C18.7414 19.6641 18.582 19.8094 18.4695 19.875L18.2586 19.9922H12.0008H5.74297L5.53203 19.875C5.41953 19.8094 5.26016 19.6641 5.18047 19.5562L5.03984 19.35V10.5V1.65L5.18047 1.44844C5.33984 1.22344 5.55547 1.07812 5.80859 1.02656C5.90234 1.00781 8.74297 0.998436 12.118 1.00312L18.2586 1.00781L18.4695 1.125ZM13.4633 21.9844C13.6367 22.5094 13.782 22.9594 13.782 22.9781C13.782 23.0016 12.9805 23.0156 12.0008 23.0156C11.0211 23.0156 10.2195 22.9969 10.2195 22.9781C10.2195 22.95 10.7727 21.2672 10.8523 21.0562C10.8664 21.0094 11.1242 21 12.0055 21.0094L13.1398 21.0234L13.4633 21.9844Z" fill="#0A113D"/>
</g>
<defs>
<clipPath id="clip0_265_3967">
<rect width="24" height="24" fill="white"/>
</clipPath>
</defs>
</svg>
