<svg width="32" height="32" viewBox="0 0 32 32" fill="none" xmlns="http://www.w3.org/2000/svg">
<g clip-path="url(#clip0_265_4039)">
<path d="M12.5 0.0626678C10.3375 0.181417 7.61875 0.500168 6.65 0.756418C4.23125 1.38767 1.95625 3.45017 1 5.87517C0.44375 7.28142 0 11.4814 0 15.3127C0 18.3564 0.35 22.4064 0.75 23.9627C1.4 26.5064 3.65 28.8814 6.24375 29.7502C7.0875 30.0377 9.1125 30.3252 11.5625 30.5127C12.9563 30.6189 17.575 30.6189 19.0688 30.5127L20.2313 30.4252L20.6313 30.7064C24.275 33.2439 29.3563 31.8877 31.2812 27.8627C32.4 25.5252 32.1813 22.7377 30.7125 20.6314L30.425 20.2252L30.5063 19.0689C30.6187 17.5814 30.6187 12.9689 30.5125 11.5627C30.325 9.09392 30.0375 7.08767 29.7437 6.22517C28.9375 3.81267 26.8 1.67517 24.3875 0.875168C23.5375 0.593918 21.4312 0.293917 19.125 0.125168C17.9 0.0314178 13.775 -0.00608253 12.5 0.0626678ZM17.8813 2.43767C20.2313 2.55642 22.8813 2.87517 23.6438 3.13142C25.175 3.64392 26.575 4.92517 27.275 6.45017C27.5625 7.06892 27.6562 7.45642 27.8375 8.81267C28.2 11.5377 28.3438 14.8939 28.2063 17.5189C28.175 18.2127 28.1562 18.3189 28.0688 18.2877C28.0125 18.2752 27.7188 18.1564 27.4125 18.0314C26.5375 17.6689 25.825 17.5377 24.7188 17.5439C23.725 17.5439 23.25 17.6189 22.4 17.9064C20.6812 18.4814 19.1063 19.8689 18.2563 21.5439C17.3313 23.3877 17.275 25.6627 18.1063 27.6127C18.225 27.9002 18.3125 28.1502 18.2938 28.1627C18.2188 28.2439 14.2 28.2627 12.8125 28.1939C10.6562 28.0877 8.19375 27.8127 7.28125 27.5814C5.80625 27.2127 4.3 25.9752 3.5 24.4814C3.0375 23.6189 2.875 22.8439 2.625 20.4002C2.2375 16.5377 2.3125 12.1814 2.81875 8.59392C2.99375 7.35642 3.09375 6.98142 3.4 6.34392C4.0125 5.08767 5.1 4.00642 6.34375 3.40642C7 3.09392 7.39375 2.98767 8.59375 2.81892C11.35 2.43142 14.8313 2.28767 17.8813 2.43767ZM25.925 20.0314C26.85 20.2502 27.8875 20.9002 28.5 21.6439C28.875 22.1002 29.3313 22.9877 29.4813 23.5627C29.6313 24.1252 29.6313 25.3814 29.4813 25.9377C29.225 26.9002 28.6063 27.8814 27.8813 28.4814C27.4062 28.8752 26.525 29.3252 25.9375 29.4814C25.3125 29.6502 24.1125 29.6314 23.475 29.4502C20.2812 28.5314 18.8813 24.8377 20.6875 22.1064C21.425 20.9877 22.5813 20.2127 23.8625 19.9689C24.425 19.8627 25.3375 19.8877 25.925 20.0314Z" fill="#1076FC"/>
<path d="M7.15556 8.10647C6.69931 8.34397 6.48056 8.68147 6.48056 9.15647C6.47431 9.70022 6.78056 10.1252 7.30556 10.3002C7.59306 10.4002 22.9181 10.4065 23.2681 10.3065C23.5618 10.2252 23.9306 9.91272 24.0368 9.64397C24.2118 9.23147 24.0806 8.57522 23.7743 8.30022C23.4181 7.98772 23.7681 8.00022 15.2681 8.00022C8.16806 8.00647 7.32431 8.01272 7.15556 8.10647Z" fill="#1076FC"/>
<path d="M7.28095 15.45C6.44345 15.75 6.19345 16.8375 6.8247 17.4125C7.2122 17.7687 6.94345 17.7562 12.2747 17.7375L17.1747 17.7187L17.4185 17.525C17.756 17.25 17.8997 16.975 17.8997 16.5937C17.8997 16.1812 17.7185 15.8312 17.381 15.5937L17.1122 15.4062L12.2935 15.3937C8.98095 15.3875 7.4122 15.4062 7.28095 15.45Z" fill="#1076FC"/>
<path d="M24.2812 21.1191C23.9813 21.2566 23.7875 21.4566 23.6562 21.7629C23.5813 21.9441 23.5625 22.2566 23.5625 23.2004C23.5625 24.2879 23.575 24.4254 23.6938 24.6691C24.025 25.3566 24.8687 25.5504 25.4937 25.0816C25.8813 24.7816 25.9375 24.5629 25.9375 23.1754C25.9375 22.4566 25.9125 21.8754 25.8688 21.7691C25.7812 21.5316 25.45 21.1941 25.2063 21.0879C24.9312 20.9691 24.5813 20.9816 24.2812 21.1191Z" fill="#1076FC"/>
<path d="M24.375 26.1253C23.6937 26.1878 23.5312 26.4503 23.575 27.444C23.5937 27.9878 23.6125 28.0753 23.75 28.219C23.9625 28.444 24.3125 28.519 24.9625 28.4815C25.4812 28.4565 25.525 28.4378 25.7125 28.2565C25.9062 28.0628 25.9062 28.0503 25.925 27.3565C25.9375 26.7378 25.925 26.6315 25.8125 26.4503C25.7437 26.3378 25.625 26.2253 25.5437 26.194C25.35 26.119 24.7812 26.0878 24.375 26.1253Z" fill="#1076FC"/>
</g>
<defs>
<clipPath id="clip0_265_4039">
<rect width="32" height="32" fill="white"/>
</clipPath>
</defs>
</svg>
