<svg width="20" height="20" viewBox="0 0 20 20" fill="none" xmlns="http://www.w3.org/2000/svg">
<g clip-path="url(#clip0_3859_5778)">
<path d="M11.1406 1.44922C10.957 1.50391 10.7148 1.76172 10.6602 1.96094C10.5703 2.30859 10.707 2.67188 11.0039 2.85547C11.1367 2.94141 11.207 2.94922 11.6719 2.96094L12.1875 2.97656V3.75391V4.53125H7.13672C2.23047 4.53125 2.07422 4.53516 1.78125 4.60938C1.33984 4.72266 1.03906 4.89453 0.703125 5.23438C0.363281 5.57031 0.191406 5.87109 0.078125 6.3125C0.00390625 6.60156 0 6.75781 0 10C0 13.2422 0.00390625 13.3984 0.078125 13.6875C0.191406 14.1289 0.363281 14.4297 0.703125 14.7656C1.03906 15.1055 1.33984 15.2773 1.78125 15.3906C2.07422 15.4648 2.23047 15.4688 7.13672 15.4688H12.1875V16.2461V17.0234L11.668 17.0391C11.1797 17.0508 11.1367 17.0586 10.9883 17.1562C10.7461 17.3164 10.6445 17.5078 10.6445 17.8125C10.6445 18.1172 10.7461 18.3086 10.9883 18.4688L11.1484 18.5742H12.9688H14.7891L14.9492 18.4688C15.1914 18.3086 15.293 18.1172 15.293 17.8125C15.293 17.5078 15.1914 17.3164 14.9492 17.1562C14.8008 17.0586 14.7578 17.0508 14.2695 17.0391L13.75 17.0234V10V2.97656L14.2695 2.96094C14.7305 2.94922 14.8008 2.94141 14.9336 2.85547C15.0156 2.80469 15.1289 2.69141 15.1875 2.60547C15.2773 2.47266 15.293 2.40234 15.293 2.1875C15.293 1.97266 15.2773 1.90234 15.1875 1.76953C15.1289 1.68359 15.0156 1.57031 14.9336 1.51953L14.7852 1.42578L13.0273 1.41797C11.9844 1.41406 11.2188 1.42578 11.1406 1.44922ZM12.1875 10V13.9062L7.13672 13.8984L2.08594 13.8867L1.92578 13.7812C1.83984 13.7227 1.72656 13.6094 1.67578 13.5273L1.58203 13.3789L1.57031 10.0859C1.5625 7.82812 1.57422 6.74219 1.60156 6.63672C1.65234 6.44531 1.89844 6.1875 2.07812 6.13672C2.15625 6.11719 4.17969 6.09766 7.19922 6.09766L12.1875 6.09375V10Z" fill="#1076FC"/>
<path d="M3.64067 7.69922C3.45707 7.75391 3.21488 8.01172 3.1602 8.21094C3.07035 8.55859 3.20707 8.92188 3.50395 9.10547C3.63676 9.19141 3.70707 9.19922 4.16801 9.21094L4.68363 9.22656L4.69535 10.5195C4.70707 11.8086 4.70707 11.8164 4.80082 11.9648C4.8516 12.0469 4.96488 12.1602 5.05082 12.2188C5.18363 12.3086 5.25395 12.3242 5.46879 12.3242C5.68363 12.3242 5.75395 12.3086 5.88676 12.2188C5.9727 12.1602 6.08598 12.0469 6.13676 11.9648C6.23051 11.8164 6.23051 11.8086 6.24223 10.5195L6.25395 9.22656L6.76957 9.21094C7.23051 9.19922 7.30082 9.19141 7.43363 9.10547C7.51567 9.05469 7.62895 8.94141 7.68754 8.85547C7.77738 8.72266 7.79301 8.65234 7.79301 8.4375C7.79301 8.22266 7.77738 8.15234 7.68754 8.01953C7.62895 7.93359 7.51567 7.82031 7.43363 7.76953L7.2852 7.67578L5.52738 7.66797C4.48442 7.66406 3.71879 7.67578 3.64067 7.69922Z" fill="#1076FC"/>
<path d="M15.8282 4.57422C15.6446 4.62891 15.4024 4.88282 15.3477 5.08594C15.2579 5.4336 15.3946 5.79688 15.6914 5.98047C15.836 6.07032 15.8711 6.07422 16.8789 6.09375L17.918 6.11329L18.0743 6.21875C18.1602 6.27735 18.2735 6.39063 18.3243 6.47266L18.418 6.6211V10V13.3789L18.3243 13.5273C18.2735 13.6094 18.1602 13.7227 18.0743 13.7813L17.918 13.8867L16.875 13.9063L15.8321 13.9258L15.6758 14.0313C15.4336 14.1914 15.3321 14.3828 15.3321 14.6875C15.3321 14.9922 15.4336 15.1836 15.6758 15.3438L15.8321 15.4492L16.8477 15.4609C17.6797 15.4727 17.918 15.4609 18.1524 15.4102C18.6016 15.3086 18.9571 15.1094 19.2969 14.7695C19.6368 14.4297 19.8086 14.1289 19.9219 13.6875C19.9961 13.3984 20 13.2422 20 10C20 6.75782 19.9961 6.60157 19.9219 6.3125C19.8086 5.8711 19.6368 5.57032 19.2969 5.23438C18.961 4.89454 18.6602 4.72266 18.2188 4.60938C17.9571 4.54297 17.793 4.53125 16.9375 4.53516C16.3985 4.53516 15.8985 4.55469 15.8282 4.57422Z" fill="#1076FC"/>
</g>
<defs>
<clipPath id="clip0_3859_5778">
<rect width="20" height="20" fill="white"/>
</clipPath>
</defs>
</svg>
