<svg width="29" height="28" viewBox="0 0 29 28" fill="none" xmlns="http://www.w3.org/2000/svg">
<g clip-path="url(#clip0_3863_1409)">
<path d="M16.0969 2.02891C15.8398 2.10547 15.5008 2.46641 15.4242 2.74531C15.2984 3.23203 15.4898 3.74063 15.9055 3.99766C16.0914 4.11797 16.1898 4.12891 16.8406 4.14531L17.5625 4.16719V5.25547V6.34375H10.4914C3.62266 6.34375 3.40391 6.34922 2.99375 6.45312C2.37578 6.61172 1.95469 6.85234 1.48438 7.32812C1.00859 7.79844 0.767969 8.21953 0.609375 8.8375C0.505469 9.24219 0.5 9.46094 0.5 14C0.5 18.5391 0.505469 18.7578 0.609375 19.1625C0.767969 19.7805 1.00859 20.2016 1.48438 20.6719C1.95469 21.1477 2.37578 21.3883 2.99375 21.5469C3.40391 21.6508 3.62266 21.6562 10.4914 21.6562H17.5625V22.7445V23.8328L16.8352 23.8547C16.1516 23.8711 16.0914 23.882 15.8836 24.0188C15.5445 24.243 15.4023 24.5109 15.4023 24.9375C15.4023 25.3641 15.5445 25.632 15.8836 25.8563L16.1078 26.0039H18.6562H21.2047L21.4289 25.8563C21.768 25.632 21.9102 25.3641 21.9102 24.9375C21.9102 24.5109 21.768 24.243 21.4289 24.0188C21.2211 23.882 21.1609 23.8711 20.4773 23.8547L19.75 23.8328V14V4.16719L20.4773 4.14531C21.1227 4.12891 21.2211 4.11797 21.407 3.99766C21.5219 3.92656 21.6805 3.76797 21.7625 3.64766C21.8883 3.46172 21.9102 3.36328 21.9102 3.0625C21.9102 2.76172 21.8883 2.66328 21.7625 2.47734C21.6805 2.35703 21.5219 2.19844 21.407 2.12734L21.1992 1.99609L18.7383 1.98516C17.2781 1.97969 16.2063 1.99609 16.0969 2.02891ZM17.5625 14V19.4688L10.4914 19.4578L3.42031 19.4414L3.19609 19.2938C3.07578 19.2117 2.91719 19.0531 2.84609 18.9383L2.71484 18.7305L2.69844 14.1203C2.6875 10.9594 2.70391 9.43906 2.74219 9.29141C2.81328 9.02344 3.15781 8.6625 3.40937 8.59141C3.51875 8.56406 6.35156 8.53672 10.5789 8.53672L17.5625 8.53125V14Z" fill="#1076FC"/>
<path d="M5.59681 10.7789C5.33978 10.8555 5.00072 11.2164 4.92415 11.4953C4.79837 11.982 4.98978 12.4906 5.4054 12.7477C5.59134 12.868 5.68978 12.8789 6.33509 12.8953L7.05697 12.9172L7.07337 14.7273C7.08978 16.532 7.08978 16.543 7.22103 16.7508C7.29212 16.8656 7.45072 17.0242 7.57103 17.1062C7.75697 17.232 7.8554 17.2539 8.15618 17.2539C8.45697 17.2539 8.5554 17.232 8.74134 17.1062C8.86165 17.0242 9.02025 16.8656 9.09134 16.7508C9.22259 16.543 9.22259 16.532 9.239 14.7273L9.2554 12.9172L9.97728 12.8953C10.6226 12.8789 10.721 12.868 10.907 12.7477C11.0218 12.6766 11.1804 12.518 11.2624 12.3977C11.3882 12.2117 11.4101 12.1133 11.4101 11.8125C11.4101 11.5117 11.3882 11.4133 11.2624 11.2273C11.1804 11.107 11.0218 10.9484 10.907 10.8773L10.6992 10.7461L8.23822 10.7352C6.77806 10.7297 5.70618 10.7461 5.59681 10.7789Z" fill="#1076FC"/>
<path d="M22.6593 6.4039C22.4023 6.48046 22.0632 6.83593 21.9867 7.12031C21.8609 7.60702 22.0523 8.11562 22.4679 8.37265C22.6702 8.49843 22.7195 8.5039 24.1304 8.53124L25.5851 8.55859L25.8038 8.70624C25.9242 8.78827 26.0827 8.94687 26.1538 9.06171L26.2851 9.26952V14V18.7305L26.1538 18.9383C26.0827 19.0531 25.9242 19.2117 25.8038 19.2937L25.5851 19.4414L24.1249 19.4687L22.6648 19.4961L22.446 19.6437C22.107 19.868 21.9648 20.1359 21.9648 20.5625C21.9648 20.9891 22.107 21.257 22.446 21.4812L22.6648 21.6289L24.0867 21.6453C25.2515 21.6617 25.5851 21.6453 25.9132 21.5742C26.5421 21.432 27.0398 21.1531 27.5156 20.6773C27.9913 20.2016 28.232 19.7805 28.3906 19.1625C28.4945 18.7578 28.4999 18.5391 28.4999 14C28.4999 9.46093 28.4945 9.24218 28.3906 8.83749C28.232 8.21952 27.9913 7.79843 27.5156 7.32812C27.0452 6.85234 26.6242 6.61171 26.0062 6.45312C25.6398 6.36015 25.4101 6.34374 24.2124 6.34921C23.4577 6.34921 22.7577 6.37656 22.6593 6.4039Z" fill="#1076FC"/>
</g>
<defs>
<clipPath id="clip0_3863_1409">
<rect width="28" height="28" fill="white" transform="translate(0.5)"/>
</clipPath>
</defs>
</svg>
