<svg width="24" height="24" viewBox="0 0 24 24" fill="none" xmlns="http://www.w3.org/2000/svg">
<g clip-path="url(#clip0_165_5079)">
<path d="M12 6H10.5V13.5H16.5V12H12V6Z" fill="#1B2BB1" fill-opacity="0.65"/>
<path d="M24 10.5V4.5L22.35 6.15C20.4 2.4 16.5 0 12 0C5.4 0 0 5.4 0 12C0 18.6 5.4 24 12 24C15.6 24 18.9 22.35 21 19.8L18.75 17.85C17.1 19.8 14.7 21 12 21C7.05 21 3 16.95 3 12C3 7.05 7.05 3 12 3C15.6 3 18.75 5.25 20.25 8.25L18 10.5H24Z" fill="#1B2BB1" fill-opacity="0.65"/>
</g>
<defs>
<clipPath id="clip0_165_5079">
<rect width="24" height="24" fill="white"/>
</clipPath>
</defs>
</svg>
