<svg width="18" height="18" viewBox="0 0 18 18" fill="none" xmlns="http://www.w3.org/2000/svg">
<path d="M0 2.625C0 1.176 0.882 0 1.96875 0H16.0312C17.118 0 18 1.176 18 2.625V15.375C18 16.0712 17.7926 16.7389 17.4234 17.2312C17.0542 17.7234 16.5534 18 16.0312 18H1.96875C1.44661 18 0.945846 17.7234 0.576634 17.2312C0.207421 16.7389 0 16.0712 0 15.375L0 2.625ZM1.96875 2.25C1.89416 2.25 1.82262 2.28951 1.76988 2.35984C1.71713 2.43016 1.6875 2.52554 1.6875 2.625V15.375C1.6875 15.582 1.8135 15.75 1.96875 15.75H16.0312C16.1058 15.75 16.1774 15.7105 16.2301 15.6402C16.2829 15.5698 16.3125 15.4745 16.3125 15.375V2.625C16.3125 2.52554 16.2829 2.43016 16.2301 2.35984C16.1774 2.28951 16.1058 2.25 16.0312 2.25H1.96875Z" fill="#1076FC"/>
<path d="M5.75 12.8384V5.16293C5.74983 5.09641 5.76294 5.03102 5.78797 4.97347C5.81301 4.91593 5.84908 4.8683 5.89248 4.83548C5.93587 4.80265 5.98504 4.78581 6.03493 4.78668C6.08482 4.78755 6.13364 4.8061 6.17638 4.84043L10.9734 8.67893C11.0148 8.71231 11.0491 8.75941 11.0729 8.81564C11.0967 8.87188 11.1092 8.93536 11.1092 8.99993C11.1092 9.06451 11.0967 9.12798 11.0729 9.18422C11.0491 9.24046 11.0148 9.28755 10.9734 9.32093L6.17638 13.1594C6.13372 13.1937 6.085 13.2122 6.03521 13.2132C5.98542 13.2141 5.93633 13.1974 5.89297 13.1648C5.8496 13.1321 5.81352 13.0847 5.7884 13.0274C5.76328 12.97 5.75003 12.9048 5.75 12.8384Z" fill="#1076FC"/>
</svg>
