<svg width="68" height="68" viewBox="0 0 68 68" fill="none" xmlns="http://www.w3.org/2000/svg">
<g id="Group 38">
<circle id="Ellipse 2" cx="34" cy="34" r="34" fill="#A6A6A7" fill-opacity="0.4"/>
<path id="Vector" d="M30.328 24.7944C30.0193 24.5998 29.6642 24.4915 29.2995 24.4809C28.9348 24.4702 28.5739 24.5576 28.2545 24.7338C27.935 24.9101 27.6687 25.1688 27.4832 25.483C27.2977 25.7972 27.1999 26.1554 27.2 26.5202V42.541C27.1999 42.9059 27.2977 43.264 27.4832 43.5782C27.6687 43.8924 27.935 44.1511 28.2545 44.3274C28.5739 44.5036 28.9348 44.591 29.2995 44.5803C29.6642 44.5697 30.0193 44.4614 30.328 44.2668L43.0358 36.2564C43.3274 36.0727 43.5677 35.818 43.7342 35.5162C43.9008 35.2144 43.9881 34.8753 43.9881 34.5306C43.9881 34.1859 43.9008 33.8468 43.7342 33.545C43.5677 33.2432 43.3274 32.9886 43.0358 32.8048L30.328 24.793V24.7944Z" fill="#EFF0F8"/>
</g>
</svg>
