<svg width="56" height="56" viewBox="0 0 56 56" fill="none" xmlns="http://www.w3.org/2000/svg">
<g id="layer 1">
<g id="Group">
<path id="Vector" d="M12.0311 1.91426C8.82637 2.42832 5.73105 4.39707 3.86074 7.12051C2.95293 8.44395 2.1873 10.3908 1.91387 12.0861C1.67324 13.5299 1.67324 31.8174 1.91387 33.3596C2.41699 36.6736 4.34199 39.7252 7.15293 41.6611C8.31231 42.4596 10.4889 43.3346 11.9436 43.5752C12.3154 43.6408 12.3592 43.6846 12.4248 44.0564C12.6654 45.5111 13.5404 47.6877 14.3389 48.8471C16.2748 51.658 19.3264 53.583 22.6404 54.0861C24.1826 54.3268 42.3279 54.3268 43.892 54.0861C49.1092 53.2986 53.2982 49.1096 54.0857 43.8596C54.3264 42.3283 54.3264 24.1721 54.0857 22.6408C53.6154 19.5127 51.9092 16.6471 49.3936 14.7439C47.9607 13.6611 45.7842 12.7096 44.0561 12.4143C43.6842 12.3596 43.6404 12.3158 43.5748 11.9439C43.3123 10.358 42.3498 8.06113 41.4311 6.83613C39.4186 4.13457 36.5748 2.39551 33.392 1.91426C31.8936 1.68457 13.4639 1.69551 12.0311 1.91426ZM33.5779 5.49082C35.9732 6.2127 37.6029 7.38301 38.8279 9.26426C39.3748 10.0955 39.692 10.8174 40.0092 11.9768C40.1732 12.5674 40.1951 13.6393 40.1951 22.7502C40.1951 33.7314 40.2279 33.1299 39.5936 34.8033C39.2764 35.6564 38.4342 36.9252 37.6795 37.6799C36.9248 38.4346 35.6561 39.2768 34.8029 39.5939C33.1295 40.2283 33.7857 40.1846 23.242 40.2283C12.7967 40.2721 12.5779 40.2611 11.0357 39.7143C8.80449 38.9268 6.68262 36.9033 5.90605 34.8033C5.27168 33.1299 5.31543 33.7861 5.27168 23.2424C5.2498 16.1549 5.27168 13.2893 5.35918 12.6877C5.93887 9.00176 8.67324 6.16895 12.3592 5.41426C12.9279 5.29395 15.1154 5.27207 23.0232 5.28301C31.9373 5.30488 33.042 5.32676 33.5779 5.49082ZM44.9311 16.2752C47.9607 17.3471 50.1373 19.983 50.6404 23.1877C50.7279 23.7893 50.7498 26.6549 50.7279 33.7424C50.6842 44.2861 50.7279 43.6299 50.0936 45.3033C49.7764 46.1564 48.9342 47.4252 48.1795 48.1799C47.4248 48.9346 46.1561 49.7768 45.3029 50.0939C43.6295 50.7283 44.2857 50.6846 33.742 50.7283C26.6545 50.7502 23.7889 50.7283 23.1873 50.6408C20.4311 50.2033 17.9482 48.4205 16.6795 45.9486C16.4498 45.5002 15.9686 44.1002 15.9686 43.8924C15.9686 43.7721 17.4342 43.7502 24.1498 43.7502C33.0201 43.7502 33.5889 43.7174 35.3061 43.1486C39.692 41.6721 42.9076 37.8877 43.5857 33.3596C43.717 32.5283 43.7498 30.7127 43.7498 24.1393C43.7498 17.1393 43.7717 15.9689 43.9029 15.9689C43.9904 15.9689 44.4498 16.1111 44.9311 16.2752Z" fill="#EFF0F8"/>
</g>
</g>
</svg>
