<svg width="56" height="56" viewBox="0 0 56 56" fill="none" xmlns="http://www.w3.org/2000/svg">
<g id="calendar-_1_ 1" clip-path="url(#clip0_2636_3447)">
<g id="Group">
<path id="Vector" d="M7.41523 0.229595C6.78086 0.55772 6.56211 1.09366 6.56211 2.29678V3.28116H5.58867C4.35273 3.28116 3.61992 3.42334 2.75586 3.82803C1.44336 4.44053 0.393359 5.82959 0.108984 7.3171C-0.0441406 8.12647 -0.0441406 51.1546 0.108984 51.964C0.480859 53.9327 2.0668 55.5187 4.03555 55.8905C4.84492 56.0437 51.1543 56.0437 51.9637 55.8905C53.9324 55.5187 55.5184 53.9327 55.8902 51.964C56.0434 51.1546 56.0434 8.12647 55.8902 7.3171C55.5184 5.34835 53.9324 3.76241 51.9637 3.39053C51.6355 3.33585 50.9355 3.28116 50.4105 3.28116H49.4371V2.29678C49.4371 1.07178 49.2184 0.55772 48.5621 0.218658C48.0152 -0.0547791 47.5777 -0.0547791 47.0309 0.218658C46.3746 0.55772 46.1559 1.07178 46.1559 2.29678V3.28116H42.8199H39.484V2.29678C39.484 1.07178 39.2652 0.55772 38.609 0.218658C38.0621 -0.0547791 37.6246 -0.0547791 37.0777 0.218658C36.4215 0.55772 36.2027 1.07178 36.2027 2.29678V3.28116H32.9215H29.6402V2.29678C29.6402 1.07178 29.4215 0.55772 28.7652 0.218658C28.2184 -0.0547791 27.7809 -0.0547791 27.234 0.218658C26.5777 0.55772 26.359 1.07178 26.359 2.29678V3.28116H23.0777H19.7965V2.29678C19.7965 1.52022 19.7527 1.21397 19.5777 0.874908C19.3262 0.382721 18.7027 -9.15527e-05 18.1559 -9.15527e-05C17.609 -9.15527e-05 16.9855 0.382721 16.734 0.874908C16.559 1.21397 16.5152 1.52022 16.5152 2.29678V3.28116H13.1793H9.84336V2.29678C9.84336 1.07178 9.62461 0.55772 8.96836 0.218658C8.43242 -0.0547791 7.94023 -0.0547791 7.41523 0.229595ZM6.56211 7.54678C6.56211 8.32335 6.60586 8.62959 6.78086 8.96866C7.03242 9.46085 7.65586 9.84366 8.20273 9.84366C8.74961 9.84366 9.37305 9.46085 9.62461 8.96866C9.79961 8.62959 9.84336 8.32335 9.84336 7.54678V6.56241H13.1793H16.5152V7.54678C16.5152 8.32335 16.559 8.62959 16.734 8.96866C16.9855 9.46085 17.609 9.84366 18.1559 9.84366C18.7027 9.84366 19.3262 9.46085 19.5777 8.96866C19.7527 8.62959 19.7965 8.32335 19.7965 7.54678V6.56241H23.0777H26.359V7.54678C26.359 8.32335 26.4027 8.62959 26.5777 8.96866C26.8293 9.46085 27.4527 9.84366 27.9996 9.84366C28.5465 9.84366 29.1699 9.46085 29.4215 8.96866C29.5965 8.62959 29.6402 8.32335 29.6402 7.54678V6.56241H32.9215H36.2027V7.54678C36.2027 8.77178 36.4215 9.28584 37.0777 9.62491C37.6246 9.89835 38.0621 9.89835 38.609 9.62491C39.2652 9.28584 39.484 8.77178 39.484 7.54678V6.56241H42.8199H46.1559V7.54678C46.1559 8.32335 46.1996 8.62959 46.3746 8.96866C46.6262 9.46085 47.2496 9.84366 47.7965 9.84366C48.3434 9.84366 48.9668 9.46085 49.2184 8.96866C49.3934 8.62959 49.4371 8.32335 49.4371 7.54678V6.56241H50.4215C51.6465 6.56241 52.1605 6.78116 52.4996 7.43741C52.6965 7.83116 52.7184 8.07178 52.7184 10.4999V13.1249H27.9996H3.28086V10.4999C3.28086 8.07178 3.30273 7.83116 3.49961 7.43741C3.83867 6.78116 4.31992 6.57335 5.55586 6.56241H6.56211V7.54678ZM52.7184 33.9062C52.7184 51.2421 52.7184 51.4171 52.4996 51.8437C52.3574 52.128 52.1277 52.3577 51.8434 52.4999C51.4168 52.7187 51.2527 52.7187 27.9996 52.7187C4.74648 52.7187 4.58242 52.7187 4.15586 52.4999C3.87148 52.3577 3.6418 52.128 3.49961 51.8437C3.28086 51.4171 3.28086 51.2421 3.28086 33.9062V16.4062H27.9996H52.7184V33.9062Z" fill="#0A113D" fill-opacity="0.32"/>
<path id="Vector_2" d="M27.2344 20.0266C26.7312 20.3328 26.8078 20.2344 25.1016 23.2094C23.3187 26.3266 23.2094 26.5562 23.1219 27.5188C22.9359 29.4656 23.975 31.4125 25.6484 32.2766L26.3594 32.6484V34.475V36.3125H23.7453C22.3125 36.3125 20.8797 36.3672 20.5516 36.4219C18.5828 36.7937 16.9969 38.3797 16.625 40.3484C16.5703 40.6766 16.5156 42.1094 16.5156 43.5422V46.1562H15.5312C14.7547 46.1562 14.4484 46.2 14.1094 46.375C13.6172 46.6266 13.2344 47.25 13.2344 47.7969C13.2344 48.3438 13.6172 48.9672 14.1094 49.2188C14.5359 49.4375 14.7219 49.4375 28 49.4375C41.2781 49.4375 41.4641 49.4375 41.8906 49.2188C42.3828 48.9672 42.7656 48.3438 42.7656 47.7969C42.7656 47.25 42.3828 46.6266 41.8906 46.375C41.5516 46.2 41.2453 46.1562 40.4688 46.1562H39.4844V43.5422C39.4844 42.1094 39.4297 40.6766 39.375 40.3484C39.0031 38.3797 37.4172 36.7937 35.4484 36.4219C35.1203 36.3672 33.6875 36.3125 32.2547 36.3125H29.6406V34.475V32.6484L30.3516 32.2766C32.3641 31.2375 33.4031 28.6234 32.6594 26.4797C32.5281 26.075 29.6078 20.8687 29.2797 20.4422C29.0391 20.125 28.3938 19.7969 28 19.7969C27.7922 19.7969 27.4422 19.9062 27.2344 20.0266ZM28.8094 26.1516C29.2141 26.8734 29.575 27.65 29.6078 27.8797C29.7281 28.7437 28.9078 29.6406 28 29.6406C27.0922 29.6406 26.2719 28.7437 26.3922 27.8797C26.4359 27.5188 27.8578 24.8281 28 24.8281C28.0328 24.8281 28.3938 25.4188 28.8094 26.1516ZM35.3281 39.8125C35.6125 39.9547 35.8422 40.1844 35.9844 40.4688C36.1812 40.8625 36.2031 41.1031 36.2031 43.5312V46.1562H28H19.7969V43.5312C19.7969 41.1031 19.8187 40.8625 20.0156 40.4688C20.1469 40.2063 20.3984 39.9547 20.65 39.8234C21.0437 39.6156 21.3062 39.6047 27.9781 39.5938C34.7047 39.5938 34.9125 39.6047 35.3281 39.8125Z" fill="#0A113D" fill-opacity="0.32"/>
</g>
</g>
<defs>
<clipPath id="clip0_2636_3447">
<rect width="56" height="56" fill="white"/>
</clipPath>
</defs>
</svg>
